<svg width="15" height="15" viewBox="0 0 15 15" fill="none" xmlns="http://www.w3.org/2000/svg">
<path d="M5.54717 6.6367V6.62766L5.80597 4.53366H4.72728C4.61509 4.53366 4.51555 4.6133 4.49202 4.72191L4.06671 6.65302C4.07576 7.05295 4.40334 7.37695 4.80692 7.37695C5.21417 7.37695 5.54717 7.04573 5.54717 6.6367Z" fill="black"/>
<path d="M6.60237 7.37695C7.00957 7.37695 7.34257 7.04573 7.34257 6.6367V4.53366H6.12275L5.86212 6.64575C5.86573 7.04934 6.19695 7.37695 6.60237 7.37695Z" fill="black"/>
<path d="M7.65747 4.53366V6.6367C7.65747 7.04573 7.99047 7.37873 8.39772 7.37695C8.8031 7.37695 9.13249 7.04934 9.13792 6.64575L8.8773 4.53366H7.65747Z" fill="black"/>
<path d="M8.18591 9.14695C8.18591 9.63562 8.58046 10.0302 9.06913 10.0302C9.57951 10.0302 9.91616 9.67181 9.91794 9.16687C9.91794 9.10894 9.91072 9.0637 9.90346 9.02025H9.06735V9.3225H9.56868C9.54876 9.45281 9.41662 9.70439 9.06735 9.70439C8.7651 9.70439 8.51896 9.45464 8.51896 9.14695C8.51896 8.83926 8.7651 8.58951 9.06735 8.58951C9.23924 8.58951 9.35512 8.66194 9.42023 8.72526L9.66098 8.49544C9.50713 8.35064 9.30805 8.26373 9.06913 8.26373C8.58046 8.26373 8.18591 8.65828 8.18591 9.14695Z" fill="black"/>
<path d="M9.45466 6.63853C9.45466 7.04573 9.78588 7.37873 10.1949 7.37873C10.5985 7.37873 10.9261 7.05478 10.9351 6.65302L10.5098 4.72191C10.4863 4.6133 10.3867 4.53366 10.2745 4.53366H9.19586L9.45466 6.62948V6.63853Z" fill="black"/>
<path fill-rule="evenodd" clip-rule="evenodd" d="M0 7.5C0 3.35786 3.35786 0 7.5 0C11.6422 0 15 3.35786 15 7.5C15 11.6422 11.6422 15 7.5 15C3.35786 15 0 11.6422 0 7.5ZM10.2745 4.21875C10.5333 4.21875 10.7614 4.40154 10.8174 4.65492L11.2518 6.62044V6.6367C11.2518 7.00772 11.0582 7.33528 10.7686 7.52353V10.2093C10.7686 10.5152 10.5206 10.7632 10.2148 10.7632H4.80516C4.49928 10.7632 4.25133 10.5152 4.25133 10.2093V7.53441C3.95089 7.34798 3.75 7.01498 3.75 6.6367V6.62044L4.18436 4.65492C4.24047 4.40154 4.46851 4.21875 4.7273 4.21875H10.2745Z" fill="black"/>
</svg>
