<svg width="15" height="15" viewBox="0 0 15 15" fill="none" xmlns="http://www.w3.org/2000/svg">
<path fill-rule="evenodd" clip-rule="evenodd" d="M7.5 0C11.6422 0 15 3.35786 15 7.5C15 11.6422 11.6422 15 7.5 15C3.35786 15 0 11.6422 0 7.5C0 3.35786 3.35786 0 7.5 0ZM9.00366 5.80228C8.61502 5.4307 8.12067 5.24147 7.57012 5.24147C6.59344 5.24147 5.76684 5.90109 5.47195 6.7875C5.39695 7.0125 5.35434 7.25283 5.35434 7.5C5.35434 7.74712 5.39681 7.9875 5.47181 8.2125C5.7667 9.09886 6.59344 9.75848 7.57012 9.75848C8.07469 9.75848 8.50434 9.62559 8.84016 9.40059C9.23733 9.13467 9.50152 8.7375 9.58847 8.26875H7.57027V6.8182H11.1021C11.1464 7.06364 11.1703 7.31934 11.1703 7.58522C11.1703 8.72728 10.7612 9.68864 10.0521 10.3415C9.43163 10.9142 8.58262 11.25 7.57012 11.25C6.1042 11.25 4.83605 10.4096 4.21898 9.18408C3.965 8.67783 3.82027 8.10511 3.82027 7.5C3.82027 6.89484 3.96515 6.32212 4.21913 5.81587C4.83619 4.59032 6.1042 3.75 7.57012 3.75C8.58094 3.75 9.4298 4.12159 10.0792 4.72669L9.00366 5.80228Z" fill="black"/>
</svg>
