<svg width="15" height="15" viewBox="0 0 15 15" fill="none" xmlns="http://www.w3.org/2000/svg">
<path fill-rule="evenodd" clip-rule="evenodd" d="M0 7.5C0 3.35786 3.35786 0 7.5 0C11.6422 0 15 3.35786 15 7.5C15 11.6422 11.6422 15 7.5 15C3.35786 15 0 11.6422 0 7.5ZM3.84375 6.23438V11.25H5.4375V6.23438H3.84375ZM3.75 4.64062C3.75 5.15625 4.125 5.53125 4.64062 5.53125C5.15625 5.53125 5.53125 5.15625 5.53125 4.64062C5.53125 4.125 5.15625 3.75 4.64062 3.75C4.17187 3.75 3.75 4.125 3.75 4.64062ZM9.65625 11.25H11.1562V8.15625C11.1562 6.60937 10.2187 6.09375 9.32812 6.09375C8.53125 6.09375 7.96875 6.60938 7.82813 6.9375V6.23438H6.32812V11.25H7.92187V8.57812C7.92187 7.875 8.39062 7.5 8.85937 7.5C9.32812 7.5 9.65625 7.73438 9.65625 8.53125V11.25Z" fill="black"/>
</svg>
