<svg width="165" height="127" viewBox="0 0 165 127" fill="none" xmlns="http://www.w3.org/2000/svg">
<path d="M61.5 120.5L60 123.125H61.75L61.375 122.375H61.25L61.5 121.875L62.25 123.125H64.375L62.625 120L62.875 119.625L64.875 123.125H67L63.5 117L63.125 117.75L65.75 122.375H65.25L62.875 118.125L61.75 120L63.125 122.375H62.625L61.5 120.5Z" fill="black" stroke="black" stroke-width="0.0425"/>
<path d="M109.5 120.5L108 123.125H109.75L109.375 122.375H109.25L109.5 121.875L110.25 123.125H112.375L110.625 120L110.875 119.625L112.875 123.125H115L111.5 117L111.125 117.75L113.75 122.375H113.25L110.875 118.125L109.75 120L111.125 122.375H110.625L109.5 120.5Z" fill="black" stroke="black" stroke-width="0.0425"/>
<path d="M129.965 117.574L126.586 124H125.604L129.472 116.891H130.102L129.965 117.574ZM130.775 124L129.599 117.467L129.691 116.891H130.277L131.679 124H130.775ZM131.103 121.368L130.966 122.14H127.084L127.221 121.368H131.103ZM135.902 122.921L137.016 116.5H137.904L136.601 124H135.795L135.902 122.921ZM132.719 121.456L132.729 121.354C132.771 121.028 132.849 120.702 132.963 120.377C133.08 120.051 133.238 119.754 133.437 119.483C133.635 119.213 133.876 118.998 134.159 118.839C134.442 118.679 134.773 118.604 135.15 118.614C135.489 118.624 135.772 118.704 136 118.854C136.228 119.003 136.407 119.202 136.537 119.449C136.671 119.693 136.76 119.962 136.806 120.255C136.854 120.548 136.869 120.842 136.85 121.139L136.796 121.588C136.741 121.904 136.649 122.213 136.522 122.516C136.396 122.818 136.231 123.092 136.029 123.336C135.831 123.577 135.591 123.767 135.312 123.907C135.035 124.047 134.717 124.112 134.359 124.103C134.014 124.09 133.728 124 133.5 123.834C133.275 123.668 133.1 123.455 132.973 123.194C132.849 122.931 132.768 122.647 132.729 122.345C132.693 122.039 132.689 121.743 132.719 121.456ZM133.627 121.344L133.617 121.446C133.594 121.642 133.586 121.848 133.593 122.066C133.603 122.281 133.64 122.485 133.705 122.677C133.77 122.866 133.876 123.022 134.022 123.146C134.169 123.266 134.368 123.331 134.618 123.341C134.885 123.347 135.132 123.287 135.36 123.16C135.588 123.033 135.784 122.864 135.946 122.652C136.109 122.441 136.226 122.211 136.298 121.964L136.488 120.777C136.498 120.598 136.477 120.427 136.425 120.265C136.373 120.099 136.295 119.951 136.19 119.82C136.09 119.69 135.964 119.586 135.814 119.508C135.668 119.426 135.504 119.384 135.321 119.381C135.048 119.371 134.812 119.425 134.613 119.542C134.415 119.656 134.247 119.811 134.11 120.006C133.977 120.198 133.871 120.411 133.793 120.646C133.715 120.88 133.66 121.113 133.627 121.344ZM139.696 123.141L141.776 118.717H142.709L140.038 124H139.418L139.696 123.141ZM139.208 118.717L139.96 123.253L139.936 124H139.369L138.334 118.717H139.208ZM144.525 118.717L143.607 124H142.724L143.642 118.717H144.525ZM143.817 117.33C143.817 117.177 143.865 117.05 143.959 116.949C144.057 116.845 144.182 116.791 144.335 116.788C144.488 116.785 144.613 116.832 144.711 116.93C144.812 117.027 144.861 117.151 144.857 117.301C144.857 117.451 144.807 117.576 144.706 117.677C144.608 117.774 144.485 117.825 144.335 117.828C144.185 117.831 144.062 117.787 143.964 117.696C143.866 117.602 143.817 117.48 143.817 117.33ZM148.275 122.569C148.305 122.368 148.267 122.21 148.163 122.096C148.062 121.982 147.929 121.896 147.763 121.837C147.6 121.775 147.44 121.725 147.284 121.686C147.089 121.637 146.892 121.576 146.693 121.505C146.495 121.433 146.312 121.342 146.146 121.231C145.984 121.118 145.854 120.978 145.756 120.812C145.661 120.642 145.619 120.437 145.629 120.196C145.642 119.936 145.71 119.706 145.834 119.508C145.961 119.309 146.124 119.143 146.322 119.01C146.524 118.876 146.744 118.777 146.981 118.712C147.219 118.647 147.455 118.616 147.689 118.619C148.021 118.626 148.323 118.694 148.593 118.824C148.866 118.954 149.083 119.142 149.242 119.386C149.402 119.63 149.477 119.926 149.467 120.274L148.593 120.27C148.599 120.084 148.562 119.924 148.48 119.791C148.399 119.658 148.287 119.555 148.144 119.483C148 119.409 147.838 119.369 147.655 119.366C147.483 119.363 147.313 119.391 147.147 119.449C146.981 119.505 146.84 119.592 146.723 119.713C146.605 119.83 146.534 119.983 146.508 120.172C146.488 120.312 146.509 120.427 146.571 120.519C146.633 120.606 146.718 120.678 146.825 120.733C146.936 120.785 147.051 120.829 147.172 120.865C147.296 120.898 147.408 120.927 147.509 120.953C147.776 121.028 148.039 121.122 148.3 121.236C148.56 121.35 148.772 121.508 148.935 121.71C149.097 121.909 149.171 122.171 149.154 122.496C149.141 122.773 149.068 123.014 148.935 123.219C148.804 123.421 148.635 123.588 148.427 123.722C148.222 123.852 147.995 123.948 147.748 124.01C147.501 124.072 147.253 124.101 147.006 124.098C146.664 124.091 146.345 124.021 146.049 123.888C145.756 123.751 145.521 123.556 145.346 123.302C145.17 123.045 145.087 122.732 145.097 122.364L145.98 122.369C145.98 122.581 146.024 122.76 146.112 122.906C146.203 123.049 146.329 123.159 146.488 123.233C146.648 123.308 146.83 123.347 147.035 123.351C147.208 123.354 147.383 123.331 147.562 123.282C147.745 123.233 147.901 123.152 148.031 123.038C148.165 122.921 148.246 122.765 148.275 122.569ZM150.253 121.446L150.268 121.334C150.307 120.979 150.395 120.637 150.531 120.309C150.671 119.98 150.855 119.687 151.083 119.43C151.311 119.173 151.581 118.971 151.894 118.824C152.206 118.678 152.554 118.609 152.938 118.619C153.31 118.626 153.627 118.705 153.891 118.858C154.158 119.011 154.372 119.215 154.535 119.469C154.701 119.719 154.817 120.003 154.882 120.318C154.947 120.634 154.963 120.96 154.931 121.295L154.921 121.407C154.879 121.762 154.787 122.102 154.647 122.428C154.507 122.753 154.322 123.043 154.091 123.297C153.863 123.551 153.593 123.751 153.28 123.897C152.968 124.041 152.621 124.107 152.24 124.098C151.872 124.091 151.555 124.013 151.288 123.863C151.024 123.71 150.811 123.508 150.648 123.258C150.486 123.007 150.372 122.726 150.307 122.413C150.242 122.101 150.224 121.778 150.253 121.446ZM151.146 121.334L151.137 121.451C151.114 121.656 151.112 121.869 151.132 122.091C151.155 122.312 151.207 122.517 151.288 122.706C151.373 122.895 151.495 123.049 151.654 123.17C151.814 123.29 152.021 123.354 152.274 123.36C152.545 123.367 152.782 123.315 152.987 123.204C153.192 123.09 153.367 122.937 153.51 122.745C153.656 122.553 153.772 122.34 153.856 122.105C153.944 121.871 154.003 121.638 154.032 121.407L154.042 121.295C154.065 121.09 154.065 120.877 154.042 120.655C154.022 120.431 153.97 120.222 153.886 120.03C153.804 119.835 153.684 119.677 153.524 119.557C153.365 119.433 153.158 119.368 152.904 119.361C152.634 119.352 152.395 119.405 152.187 119.522C151.981 119.636 151.807 119.791 151.664 119.986C151.521 120.182 151.405 120.398 151.317 120.636C151.233 120.87 151.176 121.103 151.146 121.334ZM157.211 119.586L156.444 124H155.561L156.479 118.717H157.338L157.211 119.586ZM158.925 118.673L158.842 119.522C158.773 119.509 158.703 119.498 158.632 119.488C158.563 119.479 158.495 119.474 158.427 119.474C158.215 119.47 158.025 119.503 157.855 119.571C157.689 119.636 157.541 119.729 157.411 119.85C157.284 119.97 157.175 120.112 157.084 120.274C156.996 120.437 156.926 120.613 156.874 120.802L156.596 120.948C156.632 120.685 156.69 120.414 156.771 120.138C156.856 119.861 156.972 119.605 157.118 119.371C157.268 119.137 157.455 118.948 157.68 118.805C157.908 118.661 158.181 118.595 158.5 118.604C158.572 118.604 158.642 118.611 158.71 118.624C158.782 118.637 158.853 118.653 158.925 118.673ZM160.482 123.399L162.709 118.717H163.686L160.585 124.82C160.504 124.993 160.408 125.159 160.297 125.318C160.189 125.478 160.066 125.621 159.926 125.748C159.789 125.875 159.634 125.974 159.462 126.046C159.289 126.118 159.099 126.153 158.891 126.153C158.803 126.15 158.715 126.14 158.627 126.124C158.536 126.108 158.448 126.09 158.363 126.07L158.417 125.328C158.456 125.335 158.495 125.34 158.534 125.343C158.573 125.349 158.611 125.354 158.646 125.357C158.865 125.364 159.052 125.333 159.208 125.265C159.368 125.196 159.504 125.095 159.618 124.962C159.735 124.828 159.84 124.669 159.931 124.483L160.482 123.399ZM160.238 118.717L160.868 122.867L160.927 123.8L160.268 124.122L159.311 118.717H160.238Z" fill="black"/>
<path d="M83.0771 116.891L81.8467 124H80.9385L82.1738 116.891H83.0771ZM85.2939 116.891L85.1572 117.662H79.8252L79.9619 116.891H85.2939ZM87.584 123.097L88.0234 120.367C88.0462 120.165 88.0267 119.988 87.9648 119.835C87.9062 119.682 87.807 119.563 87.667 119.479C87.5303 119.394 87.3577 119.348 87.1494 119.342C86.9671 119.339 86.7881 119.368 86.6123 119.43C86.4398 119.492 86.29 119.584 86.1631 119.708C86.0361 119.832 85.9531 119.988 85.9141 120.177L85.0352 120.182C85.0579 119.918 85.141 119.688 85.2842 119.493C85.4274 119.295 85.6064 119.13 85.8213 119C86.0361 118.867 86.2673 118.769 86.5146 118.707C86.762 118.642 87.0029 118.611 87.2373 118.614C87.5921 118.621 87.8997 118.697 88.1602 118.844C88.4238 118.987 88.6224 119.189 88.7559 119.449C88.8893 119.71 88.9382 120.022 88.9023 120.387L88.4971 122.848C88.4678 123.027 88.4499 123.207 88.4434 123.39C88.4401 123.569 88.4613 123.744 88.5068 123.917L88.4971 124L87.6035 124.005C87.5677 123.855 87.5498 123.704 87.5498 123.551C87.5531 123.398 87.5645 123.246 87.584 123.097ZM88.126 120.797L88.0234 121.432L87.1885 121.427C87.0127 121.427 86.8271 121.44 86.6318 121.466C86.4365 121.492 86.251 121.541 86.0752 121.612C85.8994 121.684 85.7513 121.788 85.6309 121.925C85.5104 122.058 85.4372 122.232 85.4111 122.447C85.3916 122.623 85.4128 122.776 85.4746 122.906C85.5397 123.033 85.6374 123.132 85.7676 123.204C85.8978 123.276 86.0492 123.313 86.2217 123.316C86.4463 123.32 86.6676 123.276 86.8857 123.185C87.1038 123.093 87.2943 122.963 87.457 122.794C87.6198 122.625 87.7321 122.429 87.7939 122.208L88.1162 122.643C88.0544 122.857 87.9535 123.056 87.8135 123.238C87.6735 123.417 87.5075 123.572 87.3154 123.702C87.1266 123.832 86.9232 123.933 86.7051 124.005C86.487 124.076 86.2689 124.111 86.0508 124.107C85.7546 124.101 85.486 124.034 85.2451 123.907C85.0075 123.78 84.8187 123.603 84.6787 123.375C84.542 123.144 84.4834 122.875 84.5029 122.569C84.5225 122.234 84.6104 121.952 84.7666 121.725C84.9229 121.497 85.123 121.314 85.3672 121.178C85.6146 121.041 85.8848 120.943 86.1777 120.885C86.4707 120.823 86.7604 120.792 87.0469 120.792L88.126 120.797ZM91.124 118.717L91.9395 120.636L93.375 118.717H94.4639L92.3447 121.368L93.6338 124H92.6719L91.7979 122.022L90.3086 124H89.2295L91.4072 121.28L90.1621 118.717H91.124Z" fill="black"/>
<path d="M4.96484 117.574L1.58594 124H0.604492L4.47168 116.891H5.10156L4.96484 117.574ZM5.77539 124L4.59863 117.467L4.69141 116.891H5.27734L6.67871 124H5.77539ZM6.10254 121.368L5.96582 122.14H2.08398L2.2207 121.368H6.10254ZM9.68652 123.36C9.90137 123.364 10.1016 123.323 10.2871 123.238C10.4727 123.154 10.6305 123.033 10.7607 122.877C10.891 122.721 10.9837 122.54 11.0391 122.335L11.8789 122.33C11.8268 122.685 11.6885 122.996 11.4639 123.263C11.2425 123.53 10.9707 123.738 10.6484 123.888C10.3294 124.034 9.99577 124.104 9.64746 124.098C9.27637 124.091 8.96061 124.015 8.7002 123.868C8.44303 123.718 8.23633 123.52 8.08008 123.272C7.92383 123.025 7.81641 122.747 7.75781 122.438C7.69922 122.125 7.6862 121.804 7.71875 121.476L7.73828 121.266C7.77734 120.911 7.86361 120.574 7.99707 120.255C8.13053 119.933 8.30794 119.648 8.5293 119.4C8.75391 119.15 9.01921 118.954 9.3252 118.814C9.63118 118.674 9.97461 118.609 10.3555 118.619C10.7266 118.626 11.0488 118.714 11.3223 118.883C11.5957 119.049 11.8073 119.275 11.957 119.562C12.1068 119.848 12.1816 120.174 12.1816 120.538L11.3516 120.533C11.3483 120.325 11.3076 120.133 11.2295 119.957C11.1514 119.781 11.0358 119.64 10.8828 119.532C10.7298 119.425 10.541 119.366 10.3164 119.356C10.0462 119.35 9.81022 119.4 9.6084 119.508C9.40983 119.615 9.24056 119.763 9.10059 119.952C8.96387 120.138 8.85482 120.344 8.77344 120.572C8.69531 120.8 8.6416 121.031 8.6123 121.266L8.58789 121.471C8.56836 121.679 8.5651 121.892 8.57812 122.11C8.5944 122.328 8.63997 122.532 8.71484 122.721C8.78971 122.906 8.90527 123.058 9.06152 123.175C9.21777 123.292 9.42611 123.354 9.68652 123.36ZM14.7646 123.36C14.9795 123.364 15.1797 123.323 15.3652 123.238C15.5508 123.154 15.7087 123.033 15.8389 122.877C15.9691 122.721 16.0618 122.54 16.1172 122.335L16.957 122.33C16.9049 122.685 16.7666 122.996 16.542 123.263C16.3206 123.53 16.0488 123.738 15.7266 123.888C15.4076 124.034 15.0739 124.104 14.7256 124.098C14.3545 124.091 14.0387 124.015 13.7783 123.868C13.5212 123.718 13.3145 123.52 13.1582 123.272C13.002 123.025 12.8945 122.747 12.8359 122.438C12.7773 122.125 12.7643 121.804 12.7969 121.476L12.8164 121.266C12.8555 120.911 12.9417 120.574 13.0752 120.255C13.2087 119.933 13.3861 119.648 13.6074 119.4C13.832 119.15 14.0973 118.954 14.4033 118.814C14.7093 118.674 15.0527 118.609 15.4336 118.619C15.8047 118.626 16.127 118.714 16.4004 118.883C16.6738 119.049 16.8854 119.275 17.0352 119.562C17.1849 119.848 17.2598 120.174 17.2598 120.538L16.4297 120.533C16.4264 120.325 16.3857 120.133 16.3076 119.957C16.2295 119.781 16.1139 119.64 15.9609 119.532C15.8079 119.425 15.6191 119.366 15.3945 119.356C15.1243 119.35 14.8883 119.4 14.6865 119.508C14.488 119.615 14.3187 119.763 14.1787 119.952C14.042 120.138 13.9329 120.344 13.8516 120.572C13.7734 120.8 13.7197 121.031 13.6904 121.266L13.666 121.471C13.6465 121.679 13.6432 121.892 13.6562 122.11C13.6725 122.328 13.7181 122.532 13.793 122.721C13.8678 122.906 13.9834 123.058 14.1396 123.175C14.2959 123.292 14.5042 123.354 14.7646 123.36ZM17.8701 121.446L17.8848 121.334C17.9238 120.979 18.0117 120.637 18.1484 120.309C18.2884 119.98 18.4723 119.687 18.7002 119.43C18.9281 119.173 19.1982 118.971 19.5107 118.824C19.8232 118.678 20.1715 118.609 20.5557 118.619C20.9268 118.626 21.2441 118.705 21.5078 118.858C21.7747 119.011 21.9896 119.215 22.1523 119.469C22.3184 119.719 22.4339 120.003 22.499 120.318C22.5641 120.634 22.5804 120.96 22.5479 121.295L22.5381 121.407C22.4958 121.762 22.4046 122.102 22.2646 122.428C22.1247 122.753 21.9391 123.043 21.708 123.297C21.4801 123.551 21.21 123.751 20.8975 123.897C20.585 124.041 20.2383 124.107 19.8574 124.098C19.4896 124.091 19.1722 124.013 18.9053 123.863C18.6416 123.71 18.4284 123.508 18.2656 123.258C18.1029 123.007 17.9889 122.726 17.9238 122.413C17.8587 122.101 17.8408 121.778 17.8701 121.446ZM18.7637 121.334L18.7539 121.451C18.7311 121.656 18.7295 121.869 18.749 122.091C18.7718 122.312 18.8239 122.517 18.9053 122.706C18.9899 122.895 19.112 123.049 19.2715 123.17C19.431 123.29 19.6377 123.354 19.8916 123.36C20.1618 123.367 20.3994 123.315 20.6045 123.204C20.8096 123.09 20.9837 122.937 21.127 122.745C21.2734 122.553 21.389 122.34 21.4736 122.105C21.5615 121.871 21.6201 121.638 21.6494 121.407L21.6592 121.295C21.682 121.09 21.682 120.877 21.6592 120.655C21.6396 120.431 21.5876 120.222 21.5029 120.03C21.4215 119.835 21.3011 119.677 21.1416 119.557C20.9821 119.433 20.7754 119.368 20.5215 119.361C20.2513 119.352 20.012 119.405 19.8037 119.522C19.5986 119.636 19.4245 119.791 19.2812 119.986C19.138 120.182 19.0225 120.398 18.9346 120.636C18.8499 120.87 18.793 121.103 18.7637 121.334ZM26.5371 122.73L27.2305 118.717H28.1191L27.2012 124H26.3564L26.5371 122.73ZM26.8691 121.666L27.2305 121.651C27.1882 121.983 27.1133 122.299 27.0059 122.599C26.8984 122.895 26.752 123.159 26.5664 123.39C26.3841 123.618 26.1562 123.797 25.8828 123.927C25.6126 124.054 25.292 124.112 24.9209 124.103C24.6312 124.093 24.3887 124.034 24.1934 123.927C24.0013 123.819 23.8499 123.674 23.7393 123.492C23.6286 123.31 23.5553 123.102 23.5195 122.867C23.4837 122.633 23.4788 122.385 23.5049 122.125L24.0762 118.717H24.96L24.3887 122.14C24.3757 122.283 24.374 122.424 24.3838 122.564C24.3936 122.701 24.4229 122.826 24.4717 122.94C24.5205 123.054 24.5954 123.147 24.6963 123.219C24.8005 123.287 24.9372 123.325 25.1064 123.331C25.458 123.344 25.7559 123.279 26 123.136C26.2441 122.989 26.4378 122.787 26.5811 122.53C26.7243 122.273 26.8203 121.985 26.8691 121.666ZM30.126 119.898L29.4131 124H28.5293L29.4473 118.717H30.2822L30.126 119.898ZM29.7158 121.158L29.3545 121.148C29.4001 120.833 29.4831 120.523 29.6035 120.221C29.7272 119.915 29.8883 119.64 30.0869 119.396C30.2887 119.151 30.528 118.959 30.8047 118.819C31.0846 118.676 31.4036 118.609 31.7617 118.619C32.0449 118.626 32.2809 118.681 32.4697 118.785C32.6618 118.886 32.8115 119.024 32.9189 119.2C33.0264 119.376 33.098 119.579 33.1338 119.811C33.1696 120.038 33.1729 120.281 33.1436 120.538L32.5674 124H31.6787L32.2646 120.523C32.2874 120.312 32.2793 120.121 32.2402 119.952C32.2044 119.78 32.123 119.643 31.9961 119.542C31.8724 119.438 31.6934 119.382 31.459 119.376C31.2116 119.369 30.9886 119.417 30.79 119.518C30.5915 119.618 30.4173 119.757 30.2676 119.933C30.1211 120.105 30.0007 120.299 29.9062 120.514C29.8151 120.725 29.7516 120.94 29.7158 121.158ZM36.9619 118.717L36.8398 119.41H34.0615L34.1836 118.717H36.9619ZM35.3457 117.433H36.2246L35.3311 122.701C35.3213 122.815 35.3245 122.918 35.3408 123.009C35.3571 123.1 35.3962 123.173 35.458 123.229C35.5199 123.281 35.6143 123.308 35.7412 123.312C35.8128 123.312 35.8828 123.307 35.9512 123.297C36.0228 123.284 36.0944 123.272 36.166 123.263L36.1025 124.005C35.9984 124.034 35.891 124.055 35.7803 124.068C35.6729 124.085 35.5654 124.091 35.458 124.088C35.1878 124.085 34.9762 124.016 34.8232 123.883C34.6702 123.749 34.5661 123.577 34.5107 123.365C34.4554 123.154 34.4391 122.927 34.4619 122.687L35.3457 117.433ZM38.9395 118.717L38.0215 124H37.1377L38.0557 118.717H38.9395ZM38.2314 117.33C38.2314 117.177 38.2786 117.05 38.373 116.949C38.4707 116.845 38.596 116.791 38.749 116.788C38.902 116.785 39.0273 116.832 39.125 116.93C39.2259 117.027 39.2747 117.151 39.2715 117.301C39.2715 117.451 39.221 117.576 39.1201 117.677C39.0225 117.774 38.8988 117.825 38.749 117.828C38.5993 117.831 38.4756 117.787 38.3779 117.696C38.2803 117.602 38.2314 117.48 38.2314 117.33ZM41.0244 119.898L40.3115 124H39.4277L40.3457 118.717H41.1807L41.0244 119.898ZM40.6143 121.158L40.2529 121.148C40.2985 120.833 40.3815 120.523 40.502 120.221C40.6257 119.915 40.7868 119.64 40.9854 119.396C41.1872 119.151 41.4264 118.959 41.7031 118.819C41.9831 118.676 42.3021 118.609 42.6602 118.619C42.9434 118.626 43.1794 118.681 43.3682 118.785C43.5602 118.886 43.71 119.024 43.8174 119.2C43.9248 119.376 43.9964 119.579 44.0322 119.811C44.068 120.038 44.0713 120.281 44.042 120.538L43.4658 124H42.5771L43.1631 120.523C43.1859 120.312 43.1777 120.121 43.1387 119.952C43.1029 119.78 43.0215 119.643 42.8945 119.542C42.7708 119.438 42.5918 119.382 42.3574 119.376C42.11 119.369 41.887 119.417 41.6885 119.518C41.4899 119.618 41.3158 119.757 41.166 119.933C41.0195 120.105 40.8991 120.299 40.8047 120.514C40.7135 120.725 40.6501 120.94 40.6143 121.158ZM49.0225 118.717H49.833L48.9492 123.883C48.8874 124.322 48.7458 124.71 48.5244 125.045C48.3063 125.38 48.0199 125.641 47.665 125.826C47.3135 126.012 46.9115 126.1 46.459 126.09C46.2214 126.083 45.9886 126.043 45.7607 125.968C45.5329 125.893 45.3229 125.787 45.1309 125.65C44.9388 125.514 44.7777 125.346 44.6475 125.147L45.1553 124.62C45.3083 124.838 45.4889 125.011 45.6973 125.138C45.9089 125.268 46.1497 125.338 46.4199 125.348C46.7161 125.354 46.9782 125.299 47.2061 125.182C47.4372 125.068 47.6243 124.903 47.7676 124.688C47.9141 124.474 48.0101 124.221 48.0557 123.932L48.749 119.835L49.0225 118.717ZM45.0332 121.456L45.0479 121.349C45.0869 121.023 45.1634 120.698 45.2773 120.372C45.3945 120.047 45.5508 119.75 45.7461 119.483C45.9414 119.213 46.1807 119 46.4639 118.844C46.7471 118.684 47.0775 118.608 47.4551 118.614C47.7969 118.624 48.0817 118.704 48.3096 118.854C48.5374 119.003 48.7165 119.202 48.8467 119.449C48.9801 119.693 49.0697 119.962 49.1152 120.255C49.1641 120.548 49.1787 120.842 49.1592 121.139L49.1055 121.588C49.0501 121.904 48.959 122.213 48.832 122.516C48.7051 122.818 48.5407 123.092 48.3389 123.336C48.137 123.577 47.8962 123.767 47.6162 123.907C47.3395 124.047 47.0238 124.112 46.6689 124.103C46.3206 124.09 46.0326 124 45.8047 123.834C45.5801 123.668 45.4059 123.455 45.2822 123.194C45.1585 122.931 45.0788 122.647 45.043 122.345C45.0072 122.039 45.0039 121.743 45.0332 121.456ZM45.9365 121.344L45.9219 121.451C45.8991 121.646 45.8926 121.852 45.9023 122.066C45.9121 122.281 45.9495 122.485 46.0146 122.677C46.0798 122.866 46.1839 123.022 46.3271 123.146C46.4736 123.266 46.6722 123.329 46.9229 123.336C47.1898 123.346 47.4372 123.287 47.665 123.16C47.8929 123.033 48.0882 122.864 48.251 122.652C48.4137 122.441 48.5309 122.211 48.6025 121.964L48.793 120.777C48.8027 120.598 48.7816 120.426 48.7295 120.26C48.6774 120.094 48.5993 119.946 48.4951 119.815C48.3942 119.685 48.2705 119.581 48.124 119.503C47.9775 119.425 47.8115 119.384 47.626 119.381C47.3525 119.371 47.1165 119.425 46.918 119.542C46.7194 119.656 46.5518 119.811 46.415 120.006C46.2816 120.201 46.1758 120.416 46.0977 120.65C46.0195 120.885 45.9658 121.116 45.9365 121.344Z" fill="black"/>
<path d="M51.1211 98.4688V107H49.9902V98.4688H51.1211ZM54.6953 102.307V103.232H50.875V102.307H54.6953ZM55.2754 98.4688V99.3945H50.875V98.4688H55.2754ZM60.0367 100.66V107H58.9469V100.66H60.0367ZM58.8648 98.9785C58.8648 98.8027 58.9176 98.6543 59.023 98.5332C59.1324 98.4121 59.2926 98.3516 59.5035 98.3516C59.7105 98.3516 59.8687 98.4121 59.9781 98.5332C60.0914 98.6543 60.148 98.8027 60.148 98.9785C60.148 99.1465 60.0914 99.291 59.9781 99.4121C59.8687 99.5293 59.7105 99.5879 59.5035 99.5879C59.2926 99.5879 59.1324 99.5293 59.023 99.4121C58.9176 99.291 58.8648 99.1465 58.8648 98.9785ZM65.2609 102.014V107H64.177V100.66H65.2023L65.2609 102.014ZM65.0031 103.59L64.552 103.572C64.5559 103.139 64.6203 102.738 64.7453 102.371C64.8703 102 65.0461 101.678 65.2727 101.404C65.4992 101.131 65.7688 100.92 66.0813 100.771C66.3977 100.619 66.7473 100.543 67.1301 100.543C67.4426 100.543 67.7238 100.586 67.9738 100.672C68.2238 100.754 68.4367 100.887 68.6125 101.07C68.7922 101.254 68.9289 101.492 69.0227 101.785C69.1164 102.074 69.1633 102.428 69.1633 102.846V107H68.0734V102.834C68.0734 102.502 68.0246 102.236 67.927 102.037C67.8293 101.834 67.6867 101.688 67.4992 101.598C67.3117 101.504 67.0813 101.457 66.8078 101.457C66.5383 101.457 66.2922 101.514 66.0695 101.627C65.8508 101.74 65.6613 101.896 65.5012 102.096C65.3449 102.295 65.2219 102.523 65.132 102.781C65.0461 103.035 65.0031 103.305 65.0031 103.59ZM76.948 105.916V102.652C76.948 102.402 76.8973 102.186 76.7957 102.002C76.698 101.814 76.5496 101.67 76.3504 101.568C76.1512 101.467 75.9051 101.416 75.6121 101.416C75.3387 101.416 75.0984 101.463 74.8914 101.557C74.6883 101.65 74.5281 101.773 74.4109 101.926C74.2977 102.078 74.241 102.242 74.241 102.418H73.157C73.157 102.191 73.2156 101.967 73.3328 101.744C73.45 101.521 73.618 101.32 73.8367 101.141C74.0594 100.957 74.325 100.812 74.6336 100.707C74.9461 100.598 75.2938 100.543 75.6766 100.543C76.1375 100.543 76.5438 100.621 76.8953 100.777C77.2508 100.934 77.5281 101.17 77.7273 101.486C77.9305 101.799 78.032 102.191 78.032 102.664V105.617C78.032 105.828 78.0496 106.053 78.0848 106.291C78.1238 106.529 78.1805 106.734 78.2547 106.906V107H77.1238C77.0691 106.875 77.0262 106.709 76.9949 106.502C76.9637 106.291 76.948 106.096 76.948 105.916ZM77.1355 103.156L77.1473 103.918H76.0516C75.743 103.918 75.4676 103.943 75.2254 103.994C74.9832 104.041 74.7801 104.113 74.616 104.211C74.452 104.309 74.327 104.432 74.241 104.58C74.1551 104.725 74.1121 104.895 74.1121 105.09C74.1121 105.289 74.157 105.471 74.2469 105.635C74.3367 105.799 74.4715 105.93 74.6512 106.027C74.8348 106.121 75.0594 106.168 75.325 106.168C75.657 106.168 75.95 106.098 76.2039 105.957C76.4578 105.816 76.659 105.645 76.8074 105.441C76.9598 105.238 77.0418 105.041 77.0535 104.85L77.5164 105.371C77.4891 105.535 77.4148 105.717 77.2938 105.916C77.1727 106.115 77.0105 106.307 76.8074 106.49C76.6082 106.67 76.3699 106.82 76.0926 106.941C75.8191 107.059 75.5105 107.117 75.1668 107.117C74.7371 107.117 74.3602 107.033 74.0359 106.865C73.7156 106.697 73.4656 106.473 73.2859 106.191C73.1102 105.906 73.0223 105.588 73.0223 105.236C73.0223 104.896 73.0887 104.598 73.2215 104.34C73.3543 104.078 73.5457 103.861 73.7957 103.689C74.0457 103.514 74.3465 103.381 74.698 103.291C75.0496 103.201 75.4422 103.156 75.8758 103.156H77.1355ZM83.2211 102.014V107H82.1371V100.66H83.1625L83.2211 102.014ZM82.9633 103.59L82.5121 103.572C82.516 103.139 82.5805 102.738 82.7055 102.371C82.8305 102 83.0062 101.678 83.2328 101.404C83.4594 101.131 83.7289 100.92 84.0414 100.771C84.3578 100.619 84.7074 100.543 85.0902 100.543C85.4027 100.543 85.684 100.586 85.934 100.672C86.184 100.754 86.3969 100.887 86.5727 101.07C86.7523 101.254 86.8891 101.492 86.9828 101.785C87.0766 102.074 87.1234 102.428 87.1234 102.846V107H86.0336V102.834C86.0336 102.502 85.9848 102.236 85.8871 102.037C85.7895 101.834 85.6469 101.688 85.4594 101.598C85.2719 101.504 85.0414 101.457 84.768 101.457C84.4984 101.457 84.2523 101.514 84.0297 101.627C83.8109 101.74 83.6215 101.896 83.4613 102.096C83.3051 102.295 83.182 102.523 83.0922 102.781C83.0062 103.035 82.9633 103.305 82.9633 103.59ZM93.707 106.227C93.9648 106.227 94.2031 106.174 94.4219 106.068C94.6406 105.963 94.8203 105.818 94.9609 105.635C95.1016 105.447 95.1816 105.234 95.2012 104.996H96.2324C96.2129 105.371 96.0859 105.721 95.8516 106.045C95.6211 106.365 95.3184 106.625 94.9434 106.824C94.5684 107.02 94.1562 107.117 93.707 107.117C93.2305 107.117 92.8145 107.033 92.459 106.865C92.1074 106.697 91.8145 106.467 91.5801 106.174C91.3496 105.881 91.1758 105.545 91.0586 105.166C90.9453 104.783 90.8887 104.379 90.8887 103.953V103.707C90.8887 103.281 90.9453 102.879 91.0586 102.5C91.1758 102.117 91.3496 101.779 91.5801 101.486C91.8145 101.193 92.1074 100.963 92.459 100.795C92.8145 100.627 93.2305 100.543 93.707 100.543C94.2031 100.543 94.6367 100.645 95.0078 100.848C95.3789 101.047 95.6699 101.32 95.8809 101.668C96.0957 102.012 96.2129 102.402 96.2324 102.84H95.2012C95.1816 102.578 95.1074 102.342 94.9785 102.131C94.8535 101.92 94.6816 101.752 94.4629 101.627C94.248 101.498 93.9961 101.434 93.707 101.434C93.375 101.434 93.0957 101.5 92.8691 101.633C92.6465 101.762 92.4688 101.938 92.3359 102.16C92.207 102.379 92.1133 102.623 92.0547 102.893C92 103.158 91.9727 103.43 91.9727 103.707V103.953C91.9727 104.23 92 104.504 92.0547 104.773C92.1094 105.043 92.2012 105.287 92.3301 105.506C92.4629 105.725 92.6406 105.9 92.8633 106.033C93.0898 106.162 93.3711 106.227 93.707 106.227ZM101.029 100.66V107H99.9391V100.66H101.029ZM99.857 98.9785C99.857 98.8027 99.9098 98.6543 100.015 98.5332C100.125 98.4121 100.285 98.3516 100.496 98.3516C100.703 98.3516 100.861 98.4121 100.97 98.5332C101.084 98.6543 101.14 98.8027 101.14 98.9785C101.14 99.1465 101.084 99.291 100.97 99.4121C100.861 99.5293 100.703 99.5879 100.496 99.5879C100.285 99.5879 100.125 99.5293 100.015 99.4121C99.9098 99.291 99.857 99.1465 99.857 98.9785ZM108.907 105.916V102.652C108.907 102.402 108.857 102.186 108.755 102.002C108.657 101.814 108.509 101.67 108.31 101.568C108.111 101.467 107.864 101.416 107.571 101.416C107.298 101.416 107.058 101.463 106.851 101.557C106.648 101.65 106.487 101.773 106.37 101.926C106.257 102.078 106.2 102.242 106.2 102.418H105.116C105.116 102.191 105.175 101.967 105.292 101.744C105.409 101.521 105.577 101.32 105.796 101.141C106.019 100.957 106.284 100.812 106.593 100.707C106.905 100.598 107.253 100.543 107.636 100.543C108.097 100.543 108.503 100.621 108.855 100.777C109.21 100.934 109.487 101.17 109.687 101.486C109.89 101.799 109.991 102.191 109.991 102.664V105.617C109.991 105.828 110.009 106.053 110.044 106.291C110.083 106.529 110.14 106.734 110.214 106.906V107H109.083C109.029 106.875 108.986 106.709 108.954 106.502C108.923 106.291 108.907 106.096 108.907 105.916ZM109.095 103.156L109.107 103.918H108.011C107.702 103.918 107.427 103.943 107.185 103.994C106.943 104.041 106.739 104.113 106.575 104.211C106.411 104.309 106.286 104.432 106.2 104.58C106.114 104.725 106.071 104.895 106.071 105.09C106.071 105.289 106.116 105.471 106.206 105.635C106.296 105.799 106.431 105.93 106.611 106.027C106.794 106.121 107.019 106.168 107.284 106.168C107.616 106.168 107.909 106.098 108.163 105.957C108.417 105.816 108.618 105.645 108.767 105.441C108.919 105.238 109.001 105.041 109.013 104.85L109.476 105.371C109.448 105.535 109.374 105.717 109.253 105.916C109.132 106.115 108.97 106.307 108.767 106.49C108.568 106.67 108.329 106.82 108.052 106.941C107.779 107.059 107.47 107.117 107.126 107.117C106.696 107.117 106.32 107.033 105.995 106.865C105.675 106.697 105.425 106.473 105.245 106.191C105.07 105.906 104.982 105.588 104.982 105.236C104.982 104.896 105.048 104.598 105.181 104.34C105.314 104.078 105.505 103.861 105.755 103.689C106.005 103.514 106.306 103.381 106.657 103.291C107.009 103.201 107.402 103.156 107.835 103.156H109.095ZM115.274 98V107H114.184V98H115.274Z" fill="black"/>
<path d="M24.168 86.3945H19.8086L19.7852 84.1211H23.5234C24.1641 84.1211 24.6992 84.0312 25.1289 83.8516C25.5586 83.6719 25.8828 83.4102 26.1016 83.0664C26.3281 82.7227 26.4414 82.3047 26.4414 81.8125C26.4414 81.2656 26.3359 80.8203 26.125 80.4766C25.9219 80.1328 25.6016 79.8828 25.1641 79.7266C24.7266 79.5625 24.1719 79.4805 23.5 79.4805H20.8516V94H17.6289V76.9375H23.5C24.4688 76.9375 25.332 77.0312 26.0898 77.2188C26.8555 77.3984 27.5039 77.6797 28.0352 78.0625C28.5664 78.4453 28.9688 78.9258 29.2422 79.5039C29.5234 80.082 29.6641 80.7695 29.6641 81.5664C29.6641 82.2695 29.5 82.918 29.1719 83.5117C28.8516 84.0977 28.3555 84.5742 27.6836 84.9414C27.0195 85.3086 26.1758 85.5195 25.1523 85.5742L24.168 86.3945ZM24.0273 94H18.8594L20.207 91.4688H24.0273C24.668 91.4688 25.1953 91.3633 25.6094 91.1523C26.0312 90.9414 26.3438 90.6523 26.5469 90.2852C26.7578 89.9102 26.8633 89.4805 26.8633 88.9961C26.8633 88.4648 26.7695 88.0039 26.582 87.6133C26.4023 87.2227 26.1133 86.9219 25.7148 86.7109C25.3242 86.5 24.8086 86.3945 24.168 86.3945H20.8164L20.8398 84.1211H25.1055L25.8438 85C26.8281 85.0078 27.6289 85.2031 28.2461 85.5859C28.8711 85.9688 29.332 86.4609 29.6289 87.0625C29.9258 87.6641 30.0742 88.3125 30.0742 89.0078C30.0742 90.1016 29.8359 91.0195 29.3594 91.7617C28.8906 92.5039 28.2031 93.0625 27.2969 93.4375C26.3984 93.8125 25.3086 94 24.0273 94ZM46.0914 91.4688V94H37.5133V91.4688H46.0914ZM38.4859 76.9375V94H35.2633V76.9375H38.4859ZM59.6945 76.9375H62.9172V88.2695C62.9172 89.5742 62.6359 90.6719 62.0734 91.5625C61.5109 92.4453 60.7453 93.1133 59.7766 93.5664C58.8078 94.0117 57.7062 94.2344 56.4719 94.2344C55.2219 94.2344 54.1086 94.0117 53.132 93.5664C52.1555 93.1133 51.3898 92.4453 50.8352 91.5625C50.2805 90.6719 50.0031 89.5742 50.0031 88.2695V76.9375H53.2258V88.2695C53.2258 89.0664 53.3586 89.7188 53.6242 90.2266C53.8898 90.7266 54.2648 91.0977 54.7492 91.3398C55.2336 91.582 55.8078 91.7031 56.4719 91.7031C57.1437 91.7031 57.718 91.582 58.1945 91.3398C58.6789 91.0977 59.05 90.7266 59.3078 90.2266C59.5656 89.7188 59.6945 89.0664 59.6945 88.2695V76.9375ZM79.6844 91.4688V94H70.6141V91.4688H79.6844ZM71.5984 76.9375V94H68.3758V76.9375H71.5984ZM78.5008 83.9805V86.4531H70.6141V83.9805H78.5008ZM79.6492 76.9375V79.4805H70.6141V76.9375H79.6492ZM90.8852 87.7773H86.4906V85.2461H90.8852C91.6039 85.2461 92.1859 85.1289 92.6312 84.8945C93.0844 84.6523 93.4164 84.3242 93.6273 83.9102C93.8383 83.4883 93.9437 83.0078 93.9437 82.4688C93.9437 81.9453 93.8383 81.457 93.6273 81.0039C93.4164 80.5508 93.0844 80.1836 92.6312 79.9023C92.1859 79.6211 91.6039 79.4805 90.8852 79.4805H87.5453V94H84.3227V76.9375H90.8852C92.2133 76.9375 93.3461 77.1758 94.2836 77.6523C95.2289 78.1211 95.9477 78.7734 96.4398 79.6094C96.9398 80.4375 97.1898 81.3828 97.1898 82.4453C97.1898 83.5469 96.9398 84.4961 96.4398 85.293C95.9477 86.0898 95.2289 86.7031 94.2836 87.1328C93.3461 87.5625 92.2133 87.7773 90.8852 87.7773ZM113.43 91.4688V94H104.359V91.4688H113.43ZM105.344 76.9375V94H102.121V76.9375H105.344ZM112.246 83.9805V86.4531H104.359V83.9805H112.246ZM113.395 76.9375V79.4805H104.359V76.9375H113.395ZM124.853 79.5273L119.99 94H116.58L122.955 76.9375H125.134L124.853 79.5273ZM128.92 94L124.033 79.5273L123.74 76.9375H125.931L132.341 94H128.92ZM128.697 87.6602V90.2031H119.545V87.6602H128.697ZM139.722 76.9375V94H136.499V76.9375H139.722ZM149.964 76.9375L143.12 85.2578L139.206 89.4414L138.632 86.3125L141.351 82.7852L146.015 76.9375H149.964ZM146.378 94L141.07 86.0078L143.378 83.9219L150.21 94H146.378Z" fill="#1A3A6C"/>
<path d="M24.168 86.3945V87.3945H24.53L24.8082 87.1628L24.168 86.3945ZM19.8086 86.3945L18.8086 86.4048L18.8188 87.3945H19.8086V86.3945ZM19.7852 84.1211V83.1211H18.7748L18.7852 84.1314L19.7852 84.1211ZM26.1016 83.0664L25.2666 82.5161L25.2622 82.5228L25.2579 82.5295L26.1016 83.0664ZM26.125 80.4766L25.2641 80.9853L25.2683 80.9925L25.2727 80.9996L26.125 80.4766ZM25.1641 79.7266L24.8129 80.6629L24.8203 80.6657L24.8277 80.6683L25.1641 79.7266ZM20.8516 79.4805V78.4805H19.8516V79.4805H20.8516ZM20.8516 94V95H21.8516V94H20.8516ZM17.6289 94H16.6289V95H17.6289V94ZM17.6289 76.9375V75.9375H16.6289V76.9375H17.6289ZM26.0898 77.2188L25.8496 78.1895L25.8614 78.1923L26.0898 77.2188ZM29.2422 79.5039L28.3381 79.9315L28.343 79.9414L29.2422 79.5039ZM29.1719 83.5117L28.2966 83.028L28.2944 83.032L29.1719 83.5117ZM27.6836 84.9414L27.204 84.0639L27.1997 84.0663L27.6836 84.9414ZM25.1523 85.5742L25.099 84.5756L24.7673 84.5934L24.5122 84.806L25.1523 85.5742ZM18.8594 94L17.9767 93.53L17.1941 95H18.8594V94ZM20.207 91.4688V90.4688H19.6065L19.3243 90.9988L20.207 91.4688ZM25.6094 91.1523L25.1621 90.2579L25.1554 90.2613L25.6094 91.1523ZM26.5469 90.2852L25.6753 89.7949L25.6718 89.8011L26.5469 90.2852ZM26.582 87.6133L25.6735 88.0312L25.677 88.0386L25.6805 88.046L26.582 87.6133ZM25.7148 86.7109L25.2397 87.5909L25.247 87.5947L25.7148 86.7109ZM20.8164 86.3945L19.8165 86.3842L19.806 87.3945H20.8164V86.3945ZM20.8398 84.1211V83.1211H19.8501L19.8399 84.1108L20.8398 84.1211ZM25.1055 84.1211L25.8712 83.4779L25.5715 83.1211H25.1055V84.1211ZM25.8438 85L25.078 85.6432L25.3747 85.9963L25.8358 86L25.8438 85ZM28.2461 85.5859L27.719 86.4358L27.7238 86.4387L28.2461 85.5859ZM29.3594 91.7617L28.5179 91.2214L28.5139 91.2277L29.3594 91.7617ZM27.2969 93.4375L26.9145 92.5135L26.9117 92.5147L27.2969 93.4375ZM24.168 85.3945H19.8086V87.3945H24.168V85.3945ZM20.8085 86.3842L20.7851 84.1108L18.7852 84.1314L18.8086 86.4048L20.8085 86.3842ZM19.7852 85.1211H23.5234V83.1211H19.7852V85.1211ZM23.5234 85.1211C24.25 85.1211 24.9262 85.0203 25.5147 84.7741L24.7431 82.929C24.4723 83.0422 24.0781 83.1211 23.5234 83.1211V85.1211ZM25.5147 84.7741C26.1049 84.5273 26.6016 84.1432 26.9452 83.6033L25.2579 82.5295C25.164 82.6771 25.0123 82.8164 24.7431 82.929L25.5147 84.7741ZM26.9365 83.6167C27.2903 83.08 27.4414 82.4615 27.4414 81.8125H25.4414C25.4414 82.1479 25.366 82.3653 25.2666 82.5161L26.9365 83.6167ZM27.4414 81.8125C27.4414 81.1445 27.3134 80.5012 26.9773 79.9535L25.2727 80.9996C25.3585 81.1394 25.4414 81.3867 25.4414 81.8125H27.4414ZM26.9859 79.9678C26.6449 79.3908 26.1201 79.0062 25.5004 78.7848L24.8277 80.6683C25.083 80.7595 25.1988 80.8748 25.2641 80.9853L26.9859 79.9678ZM25.5152 78.7902C24.9278 78.57 24.2437 78.4805 23.5 78.4805V80.4805C24.1 80.4805 24.5253 80.555 24.8129 80.6629L25.5152 78.7902ZM23.5 78.4805H20.8516V80.4805H23.5V78.4805ZM19.8516 79.4805V94H21.8516V79.4805H19.8516ZM20.8516 93H17.6289V95H20.8516V93ZM18.6289 94V76.9375H16.6289V94H18.6289ZM17.6289 77.9375H23.5V75.9375H17.6289V77.9375ZM23.5 77.9375C24.4063 77.9375 25.1866 78.0254 25.8497 78.1895L26.33 76.248C25.4775 76.0371 24.5312 75.9375 23.5 75.9375V77.9375ZM25.8614 78.1923C26.524 78.3478 27.0453 78.5818 27.4505 78.8738L28.6198 77.2512C27.9625 76.7776 27.187 76.4491 26.3183 76.2452L25.8614 78.1923ZM27.4505 78.8738C27.848 79.1602 28.1388 79.51 28.3382 79.9315L30.1462 79.0763C29.7987 78.3416 29.2848 77.7304 28.6198 77.2512L27.4505 78.8738ZM28.343 79.9414C28.5439 80.3545 28.6641 80.8856 28.6641 81.5664H30.6641C30.6641 80.6535 30.5029 79.8095 30.1414 79.0664L28.343 79.9414ZM28.6641 81.5664C28.6641 82.1068 28.5399 82.5879 28.2966 83.028L30.0471 83.9954C30.4601 83.2481 30.6641 82.4323 30.6641 81.5664H28.6641ZM28.2944 83.032C28.0788 83.4265 27.7332 83.7747 27.204 84.0639L28.1632 85.8189C28.9778 85.3737 29.6243 84.7689 30.0493 83.9914L28.2944 83.032ZM27.1997 84.0663C26.7059 84.3393 26.0217 84.5263 25.099 84.5756L25.2057 86.5728C26.3299 86.5127 27.3331 86.2779 28.1675 85.8165L27.1997 84.0663ZM24.5122 84.806L23.5278 85.6263L24.8082 87.1628L25.7925 86.3424L24.5122 84.806ZM24.0273 93H18.8594V95H24.0273V93ZM19.7421 94.47L21.0897 91.9387L19.3243 90.9988L17.9767 93.53L19.7421 94.47ZM20.207 92.4688H24.0273V90.4688H20.207V92.4688ZM24.0273 92.4688C24.7692 92.4688 25.4657 92.3478 26.0633 92.0434L25.1554 90.2613C24.9249 90.3787 24.5667 90.4688 24.0273 90.4688V92.4688ZM26.0566 92.0468C26.636 91.7571 27.109 91.3348 27.4219 90.7692L25.6718 89.8011C25.5785 89.9699 25.4265 90.1257 25.1622 90.2579L26.0566 92.0468ZM27.4185 90.7754C27.7237 90.2327 27.8633 89.6302 27.8633 88.9961H25.8633C25.8633 89.3307 25.7919 89.5876 25.6753 89.7949L27.4185 90.7754ZM27.8633 88.9961C27.8633 88.3482 27.7489 87.7333 27.4836 87.1806L25.6805 88.046C25.7902 88.2746 25.8633 88.5814 25.8633 88.9961H27.8633ZM27.4905 87.1954C27.2144 86.5952 26.7651 86.1355 26.1827 85.8271L25.247 87.5947C25.4615 87.7083 25.5903 87.8501 25.6735 88.0312L27.4905 87.1954ZM26.19 85.831C25.603 85.5141 24.9058 85.3945 24.168 85.3945V87.3945C24.7114 87.3945 25.0454 87.4859 25.2397 87.5908L26.19 85.831ZM24.168 85.3945H20.8164V87.3945H24.168V85.3945ZM21.8164 86.4048L21.8398 84.1314L19.8399 84.1108L19.8165 86.3842L21.8164 86.4048ZM20.8398 85.1211H25.1055V83.1211H20.8398V85.1211ZM24.3398 84.7643L25.078 85.6432L26.6095 84.3568L25.8712 83.4779L24.3398 84.7643ZM25.8358 86C26.6996 86.0068 27.3038 86.1782 27.719 86.4357L28.7732 84.7361C27.954 84.228 26.9566 84.0088 25.8517 84L25.8358 86ZM27.7238 86.4387C28.2032 86.7323 28.5265 87.0884 28.7322 87.505L30.5257 86.62C30.1375 85.8335 29.539 85.2052 28.7684 84.7332L27.7238 86.4387ZM28.7322 87.505C28.9586 87.9639 29.0742 88.4602 29.0742 89.0078H31.0742C31.0742 88.1648 30.893 87.3642 30.5257 86.62L28.7322 87.505ZM29.0742 89.0078C29.0742 89.956 28.8686 90.6752 28.5179 91.2214L30.2008 92.302C30.8032 91.3639 31.0742 90.2471 31.0742 89.0078H29.0742ZM28.5139 91.2277C28.1683 91.7749 27.6532 92.2078 26.9145 92.5135L27.6792 94.3615C28.7531 93.9172 29.613 93.2329 30.2049 92.2957L28.5139 91.2277ZM26.9117 92.5147C26.1672 92.8254 25.2161 93 24.0273 93V95C25.4011 95 26.6296 94.7996 27.6821 94.3603L26.9117 92.5147ZM46.0914 91.4688H47.0914V90.4688H46.0914V91.4688ZM46.0914 94V95H47.0914V94H46.0914ZM37.5133 94H36.5133V95H37.5133V94ZM37.5133 91.4688V90.4688H36.5133V91.4688H37.5133ZM38.4859 76.9375H39.4859V75.9375H38.4859V76.9375ZM38.4859 94V95H39.4859V94H38.4859ZM35.2633 94H34.2633V95H35.2633V94ZM35.2633 76.9375V75.9375H34.2633V76.9375H35.2633ZM45.0914 91.4688V94H47.0914V91.4688H45.0914ZM46.0914 93H37.5133V95H46.0914V93ZM38.5133 94V91.4688H36.5133V94H38.5133ZM37.5133 92.4688H46.0914V90.4688H37.5133V92.4688ZM37.4859 76.9375V94H39.4859V76.9375H37.4859ZM38.4859 93H35.2633V95H38.4859V93ZM36.2633 94V76.9375H34.2633V94H36.2633ZM35.2633 77.9375H38.4859V75.9375H35.2633V77.9375ZM59.6945 76.9375V75.9375H58.6945V76.9375H59.6945ZM62.9172 76.9375H63.9172V75.9375H62.9172V76.9375ZM62.0734 91.5625L62.9168 92.0999L62.9189 92.0965L62.0734 91.5625ZM59.7766 93.5664L60.1942 94.475L60.2002 94.4722L59.7766 93.5664ZM53.132 93.5664L52.7111 94.4735L52.7171 94.4763L53.132 93.5664ZM50.8352 91.5625L49.9863 92.0912L49.9884 92.0945L50.8352 91.5625ZM50.0031 76.9375V75.9375H49.0031V76.9375H50.0031ZM53.2258 76.9375H54.2258V75.9375H53.2258V76.9375ZM53.6242 90.2266L52.7381 90.6901L52.7411 90.6957L53.6242 90.2266ZM58.1945 91.3398L57.7473 90.4454L57.7415 90.4484L58.1945 91.3398ZM59.3078 90.2266L60.1966 90.6849L60.1995 90.6793L59.3078 90.2266ZM59.6945 77.9375H62.9172V75.9375H59.6945V77.9375ZM61.9172 76.9375V88.2695H63.9172V76.9375H61.9172ZM61.9172 88.2695C61.9172 89.4303 61.6679 90.3319 61.2279 91.0285L62.9189 92.0965C63.604 91.0118 63.9172 89.7182 63.9172 88.2695H61.9172ZM61.2301 91.0251C60.772 91.7441 60.1535 92.2861 59.3529 92.6606L60.2002 94.4722C61.3371 93.9405 62.2499 93.1465 62.9168 92.0999L61.2301 91.0251ZM59.3589 92.6578C58.5403 93.0341 57.5847 93.2344 56.4719 93.2344V95.2344C57.8278 95.2344 59.0754 94.9893 60.1942 94.475L59.3589 92.6578ZM56.4719 93.2344C55.3416 93.2344 54.3735 93.0335 53.5469 92.6565L52.7171 94.4763C53.8437 94.99 55.1021 95.2344 56.4719 95.2344V93.2344ZM53.5529 92.6593C52.7455 92.2847 52.1303 91.7442 51.6819 91.0305L49.9884 92.0945C50.6493 93.1464 51.5654 93.9419 52.7111 94.4735L53.5529 92.6593ZM51.684 91.0338C51.2496 90.3364 51.0031 89.4327 51.0031 88.2695H49.0031C49.0031 89.7158 49.3113 91.0074 49.9863 92.0912L51.684 91.0338ZM51.0031 88.2695V76.9375H49.0031V88.2695H51.0031ZM50.0031 77.9375H53.2258V75.9375H50.0031V77.9375ZM52.2258 76.9375V88.2695H54.2258V76.9375H52.2258ZM52.2258 88.2695C52.2258 89.1683 52.3742 89.9944 52.7381 90.6901L54.5103 89.7631C54.343 89.4431 54.2258 88.9645 54.2258 88.2695H52.2258ZM52.7411 90.6957C53.0996 91.3705 53.6228 91.8947 54.302 92.2343L55.1964 90.4454C54.9068 90.3006 54.6801 90.0827 54.5073 89.7574L52.7411 90.6957ZM54.302 92.2343C54.9531 92.5598 55.6871 92.7031 56.4719 92.7031V90.7031C55.9285 90.7031 55.5141 90.6042 55.1964 90.4454L54.302 92.2343ZM56.4719 92.7031C57.2617 92.7031 57.9992 92.5608 58.6476 92.2313L57.7415 90.4484C57.4367 90.6032 57.0258 90.7031 56.4719 90.7031V92.7031ZM58.6417 92.2343C59.3236 91.8934 59.8456 91.3656 60.1966 90.6849L58.419 89.7683C58.2544 90.0876 58.0342 90.302 57.7473 90.4454L58.6417 92.2343ZM60.1995 90.6793C60.5511 89.9866 60.6945 89.1646 60.6945 88.2695H58.6945C58.6945 88.9682 58.5801 89.4509 58.4161 89.7739L60.1995 90.6793ZM60.6945 88.2695V76.9375H58.6945V88.2695H60.6945ZM79.6844 91.4688H80.6844V90.4688H79.6844V91.4688ZM79.6844 94V95H80.6844V94H79.6844ZM70.6141 94H69.6141V95H70.6141V94ZM70.6141 91.4688V90.4688H69.6141V91.4688H70.6141ZM71.5984 76.9375H72.5984V75.9375H71.5984V76.9375ZM71.5984 94V95H72.5984V94H71.5984ZM68.3758 94H67.3758V95H68.3758V94ZM68.3758 76.9375V75.9375H67.3758V76.9375H68.3758ZM78.5008 83.9805H79.5008V82.9805H78.5008V83.9805ZM78.5008 86.4531V87.4531H79.5008V86.4531H78.5008ZM70.6141 86.4531H69.6141V87.4531H70.6141V86.4531ZM70.6141 83.9805V82.9805H69.6141V83.9805H70.6141ZM79.6492 76.9375H80.6492V75.9375H79.6492V76.9375ZM79.6492 79.4805V80.4805H80.6492V79.4805H79.6492ZM70.6141 79.4805H69.6141V80.4805H70.6141V79.4805ZM70.6141 76.9375V75.9375H69.6141V76.9375H70.6141ZM78.6844 91.4688V94H80.6844V91.4688H78.6844ZM79.6844 93H70.6141V95H79.6844V93ZM71.6141 94V91.4688H69.6141V94H71.6141ZM70.6141 92.4688H79.6844V90.4688H70.6141V92.4688ZM70.5984 76.9375V94H72.5984V76.9375H70.5984ZM71.5984 93H68.3758V95H71.5984V93ZM69.3758 94V76.9375H67.3758V94H69.3758ZM68.3758 77.9375H71.5984V75.9375H68.3758V77.9375ZM77.5008 83.9805V86.4531H79.5008V83.9805H77.5008ZM78.5008 85.4531H70.6141V87.4531H78.5008V85.4531ZM71.6141 86.4531V83.9805H69.6141V86.4531H71.6141ZM70.6141 84.9805H78.5008V82.9805H70.6141V84.9805ZM78.6492 76.9375V79.4805H80.6492V76.9375H78.6492ZM79.6492 78.4805H70.6141V80.4805H79.6492V78.4805ZM71.6141 79.4805V76.9375H69.6141V79.4805H71.6141ZM70.6141 77.9375H79.6492V75.9375H70.6141V77.9375ZM86.4906 87.7773H85.4906V88.7773H86.4906V87.7773ZM86.4906 85.2461V84.2461H85.4906V85.2461H86.4906ZM92.6312 84.8945L93.097 85.7795L93.1026 85.7765L92.6312 84.8945ZM93.6273 83.9102L94.5184 84.3641L94.5218 84.3574L93.6273 83.9102ZM92.6312 79.9023L92.0972 80.7479L92.1039 80.752L92.6312 79.9023ZM87.5453 79.4805V78.4805H86.5453V79.4805H87.5453ZM87.5453 94V95H88.5453V94H87.5453ZM84.3227 94H83.3227V95H84.3227V94ZM84.3227 76.9375V75.9375H83.3227V76.9375H84.3227ZM94.2836 77.6523L93.8304 78.5438L93.8393 78.5482L94.2836 77.6523ZM96.4398 79.6094L95.5781 80.1168L95.5838 80.1262L96.4398 79.6094ZM96.4398 85.293L95.5928 84.7615L95.589 84.7675L96.4398 85.293ZM94.2836 87.1328L93.8698 86.2224L93.8669 86.2237L94.2836 87.1328ZM90.8852 86.7773H86.4906V88.7773H90.8852V86.7773ZM87.4906 87.7773V85.2461H85.4906V87.7773H87.4906ZM86.4906 86.2461H90.8852V84.2461H86.4906V86.2461ZM90.8852 86.2461C91.7011 86.2461 92.4598 86.1148 93.097 85.7794L92.1655 84.0096C91.9121 84.143 91.5067 84.2461 90.8852 84.2461V86.2461ZM93.1026 85.7765C93.7162 85.4485 94.2049 84.9795 94.5184 84.3641L92.7363 83.4562C92.6279 83.6689 92.4525 83.8562 92.1599 84.0126L93.1026 85.7765ZM94.5218 84.3574C94.8115 83.778 94.9437 83.1408 94.9437 82.4688H92.9437C92.9437 82.8748 92.8651 83.1986 92.7329 83.4629L94.5218 84.3574ZM94.9437 82.4688C94.9437 81.8066 94.8093 81.1734 94.5339 80.5819L92.7208 81.4259C92.8673 81.7406 92.9437 82.0841 92.9437 82.4688H94.9437ZM94.5339 80.5819C94.2353 79.9404 93.7654 79.4294 93.1586 79.0527L92.1039 80.752C92.4033 80.9378 92.5975 81.1612 92.7208 81.4259L94.5339 80.5819ZM93.1652 79.0569C92.5118 78.6442 91.7263 78.4805 90.8852 78.4805V80.4805C91.4815 80.4805 91.86 80.598 92.0973 80.7478L93.1652 79.0569ZM90.8852 78.4805H87.5453V80.4805H90.8852V78.4805ZM86.5453 79.4805V94H88.5453V79.4805H86.5453ZM87.5453 93H84.3227V95H87.5453V93ZM85.3227 94V76.9375H83.3227V94H85.3227ZM84.3227 77.9375H90.8852V75.9375H84.3227V77.9375ZM90.8852 77.9375C92.0961 77.9375 93.0654 78.1549 93.8304 78.5438L94.7367 76.7609C93.6268 76.1967 92.3304 75.9375 90.8852 75.9375V77.9375ZM93.8393 78.5482C94.6266 78.9386 95.1931 79.4628 95.5781 80.1167L97.3016 79.102C96.7023 78.0841 95.8312 77.3035 94.7278 76.7564L93.8393 78.5482ZM95.5838 80.1262C95.9805 80.7833 96.1898 81.5465 96.1898 82.4453H98.1898C98.1898 81.2191 97.8992 80.0917 97.2959 79.0925L95.5838 80.1262ZM96.1898 82.4453C96.1898 83.3915 95.9768 84.1494 95.5928 84.7615L97.2869 85.8245C97.9029 84.8427 98.1898 83.7022 98.1898 82.4453H96.1898ZM95.589 84.7675C95.2123 85.3774 94.6549 85.8656 93.8698 86.2224L94.6974 88.0432C95.8029 87.5407 96.683 86.8023 97.2906 85.8185L95.589 84.7675ZM93.8669 86.2237C93.0921 86.5789 92.1093 86.7773 90.8852 86.7773V88.7773C92.3173 88.7773 93.6001 88.5461 94.7002 88.0419L93.8669 86.2237ZM113.43 91.4688H114.43V90.4688H113.43V91.4688ZM113.43 94V95H114.43V94H113.43ZM104.359 94H103.359V95H104.359V94ZM104.359 91.4688V90.4688H103.359V91.4688H104.359ZM105.344 76.9375H106.344V75.9375H105.344V76.9375ZM105.344 94V95H106.344V94H105.344ZM102.121 94H101.121V95H102.121V94ZM102.121 76.9375V75.9375H101.121V76.9375H102.121ZM112.246 83.9805H113.246V82.9805H112.246V83.9805ZM112.246 86.4531V87.4531H113.246V86.4531H112.246ZM104.359 86.4531H103.359V87.4531H104.359V86.4531ZM104.359 83.9805V82.9805H103.359V83.9805H104.359ZM113.395 76.9375H114.395V75.9375H113.395V76.9375ZM113.395 79.4805V80.4805H114.395V79.4805H113.395ZM104.359 79.4805H103.359V80.4805H104.359V79.4805ZM104.359 76.9375V75.9375H103.359V76.9375H104.359ZM112.43 91.4688V94H114.43V91.4688H112.43ZM113.43 93H104.359V95H113.43V93ZM105.359 94V91.4688H103.359V94H105.359ZM104.359 92.4688H113.43V90.4688H104.359V92.4688ZM104.344 76.9375V94H106.344V76.9375H104.344ZM105.344 93H102.121V95H105.344V93ZM103.121 94V76.9375H101.121V94H103.121ZM102.121 77.9375H105.344V75.9375H102.121V77.9375ZM111.246 83.9805V86.4531H113.246V83.9805H111.246ZM112.246 85.4531H104.359V87.4531H112.246V85.4531ZM105.359 86.4531V83.9805H103.359V86.4531H105.359ZM104.359 84.9805H112.246V82.9805H104.359V84.9805ZM112.395 76.9375V79.4805H114.395V76.9375H112.395ZM113.395 78.4805H104.359V80.4805H113.395V78.4805ZM105.359 79.4805V76.9375H103.359V79.4805H105.359ZM104.359 77.9375H113.395V75.9375H104.359V77.9375ZM124.853 79.5273L125.801 79.8459L125.836 79.7431L125.847 79.6353L124.853 79.5273ZM119.99 94V95H120.709L120.938 94.3185L119.99 94ZM116.58 94L115.643 93.65L115.139 95H116.58V94ZM122.955 76.9375V75.9375H122.261L122.018 76.5875L122.955 76.9375ZM125.134 76.9375L126.129 77.0455L126.249 75.9375H125.134V76.9375ZM128.92 94L127.972 94.3199L128.202 95H128.92V94ZM124.033 79.5273L123.039 79.6397L123.051 79.746L123.085 79.8473L124.033 79.5273ZM123.74 76.9375V75.9375H122.62L122.746 77.0499L123.74 76.9375ZM125.931 76.9375L126.867 76.5858L126.624 75.9375H125.931V76.9375ZM132.341 94V95H133.785L133.278 93.6483L132.341 94ZM128.697 87.6602H129.697V86.6602H128.697V87.6602ZM128.697 90.2031V91.2031H129.697V90.2031H128.697ZM119.545 90.2031H118.545V91.2031H119.545V90.2031ZM119.545 87.6602V86.6602H118.545V87.6602H119.545ZM123.905 79.2088L119.042 93.6815L120.938 94.3185L125.801 79.8459L123.905 79.2088ZM119.99 93H116.58V95H119.99V93ZM117.516 94.35L123.891 77.2875L122.018 76.5875L115.643 93.65L117.516 94.35ZM122.955 77.9375H125.134V75.9375H122.955V77.9375ZM124.14 76.8295L123.859 79.4194L125.847 79.6353L126.129 77.0455L124.14 76.8295ZM129.867 93.6801L124.98 79.2074L123.085 79.8473L127.972 94.3199L129.867 93.6801ZM125.026 79.4149L124.734 76.8251L122.746 77.0499L123.039 79.6397L125.026 79.4149ZM123.74 77.9375H125.931V75.9375H123.74V77.9375ZM124.995 77.2892L131.405 94.3517L133.278 93.6483L126.867 76.5858L124.995 77.2892ZM132.341 93H128.92V95H132.341V93ZM127.697 87.6602V90.2031H129.697V87.6602H127.697ZM128.697 89.2031H119.545V91.2031H128.697V89.2031ZM120.545 90.2031V87.6602H118.545V90.2031H120.545ZM119.545 88.6602H128.697V86.6602H119.545V88.6602ZM139.722 76.9375H140.722V75.9375H139.722V76.9375ZM139.722 94V95H140.722V94H139.722ZM136.499 94H135.499V95H136.499V94ZM136.499 76.9375V75.9375H135.499V76.9375H136.499ZM149.964 76.9375L150.736 77.5727L152.081 75.9375H149.964V76.9375ZM143.12 85.2578L143.851 85.941L143.872 85.9177L143.893 85.8931L143.12 85.2578ZM139.206 89.4414L138.223 89.6219L138.581 91.5736L139.936 90.1246L139.206 89.4414ZM138.632 86.3125L137.84 85.702L137.568 86.0549L137.648 86.493L138.632 86.3125ZM141.351 82.7852L140.569 82.1616L140.564 82.1681L140.559 82.1747L141.351 82.7852ZM146.015 76.9375V75.9375H145.533L145.233 76.314L146.015 76.9375ZM146.378 94L145.545 94.5533L145.842 95H146.378V94ZM141.07 86.0078L140.399 85.2658L139.76 85.8434L140.237 86.5611L141.07 86.0078ZM143.378 83.9219L144.206 83.3608L143.561 82.4091L142.708 83.1799L143.378 83.9219ZM150.21 94V95H152.096L151.038 93.4389L150.21 94ZM138.722 76.9375V94H140.722V76.9375H138.722ZM139.722 93H136.499V95H139.722V93ZM137.499 94V76.9375H135.499V94H137.499ZM136.499 77.9375H139.722V75.9375H136.499V77.9375ZM149.192 76.3023L142.348 84.6226L143.893 85.8931L150.736 77.5727L149.192 76.3023ZM142.39 84.5746L138.476 88.7582L139.936 90.1246L143.851 85.941L142.39 84.5746ZM140.19 89.2609L139.616 86.132L137.648 86.493L138.223 89.6219L140.19 89.2609ZM139.424 86.923L142.143 83.3956L140.559 82.1747L137.84 85.702L139.424 86.923ZM142.133 83.4087L146.797 77.561L145.233 76.314L140.569 82.1616L142.133 83.4087ZM146.015 77.9375H149.964V75.9375H146.015V77.9375ZM147.211 93.4467L141.903 85.4545L140.237 86.5611L145.545 94.5533L147.211 93.4467ZM141.74 86.7498L144.049 84.6639L142.708 83.1799L140.399 85.2658L141.74 86.7498ZM142.55 84.483L149.382 94.5611L151.038 93.4389L144.206 83.3608L142.55 84.483ZM150.21 93H146.378V95H150.21V93Z" fill="black"/>
<path d="M24.168 86.3945H19.8086L19.7852 84.1211H23.5234C24.1641 84.1211 24.6992 84.0312 25.1289 83.8516C25.5586 83.6719 25.8828 83.4102 26.1016 83.0664C26.3281 82.7227 26.4414 82.3047 26.4414 81.8125C26.4414 81.2656 26.3359 80.8203 26.125 80.4766C25.9219 80.1328 25.6016 79.8828 25.1641 79.7266C24.7266 79.5625 24.1719 79.4805 23.5 79.4805H20.8516V94H17.6289V76.9375H23.5C24.4688 76.9375 25.332 77.0312 26.0898 77.2188C26.8555 77.3984 27.5039 77.6797 28.0352 78.0625C28.5664 78.4453 28.9688 78.9258 29.2422 79.5039C29.5234 80.082 29.6641 80.7695 29.6641 81.5664C29.6641 82.2695 29.5 82.918 29.1719 83.5117C28.8516 84.0977 28.3555 84.5742 27.6836 84.9414C27.0195 85.3086 26.1758 85.5195 25.1523 85.5742L24.168 86.3945ZM24.0273 94H18.8594L20.207 91.4688H24.0273C24.668 91.4688 25.1953 91.3633 25.6094 91.1523C26.0312 90.9414 26.3438 90.6523 26.5469 90.2852C26.7578 89.9102 26.8633 89.4805 26.8633 88.9961C26.8633 88.4648 26.7695 88.0039 26.582 87.6133C26.4023 87.2227 26.1133 86.9219 25.7148 86.7109C25.3242 86.5 24.8086 86.3945 24.168 86.3945H20.8164L20.8398 84.1211H25.1055L25.8438 85C26.8281 85.0078 27.6289 85.2031 28.2461 85.5859C28.8711 85.9688 29.332 86.4609 29.6289 87.0625C29.9258 87.6641 30.0742 88.3125 30.0742 89.0078C30.0742 90.1016 29.8359 91.0195 29.3594 91.7617C28.8906 92.5039 28.2031 93.0625 27.2969 93.4375C26.3984 93.8125 25.3086 94 24.0273 94ZM46.0914 91.4688V94H37.5133V91.4688H46.0914ZM38.4859 76.9375V94H35.2633V76.9375H38.4859ZM59.6945 76.9375H62.9172V88.2695C62.9172 89.5742 62.6359 90.6719 62.0734 91.5625C61.5109 92.4453 60.7453 93.1133 59.7766 93.5664C58.8078 94.0117 57.7062 94.2344 56.4719 94.2344C55.2219 94.2344 54.1086 94.0117 53.132 93.5664C52.1555 93.1133 51.3898 92.4453 50.8352 91.5625C50.2805 90.6719 50.0031 89.5742 50.0031 88.2695V76.9375H53.2258V88.2695C53.2258 89.0664 53.3586 89.7188 53.6242 90.2266C53.8898 90.7266 54.2648 91.0977 54.7492 91.3398C55.2336 91.582 55.8078 91.7031 56.4719 91.7031C57.1437 91.7031 57.718 91.582 58.1945 91.3398C58.6789 91.0977 59.05 90.7266 59.3078 90.2266C59.5656 89.7188 59.6945 89.0664 59.6945 88.2695V76.9375ZM79.6844 91.4688V94H70.6141V91.4688H79.6844ZM71.5984 76.9375V94H68.3758V76.9375H71.5984ZM78.5008 83.9805V86.4531H70.6141V83.9805H78.5008ZM79.6492 76.9375V79.4805H70.6141V76.9375H79.6492ZM90.8852 87.7773H86.4906V85.2461H90.8852C91.6039 85.2461 92.1859 85.1289 92.6312 84.8945C93.0844 84.6523 93.4164 84.3242 93.6273 83.9102C93.8383 83.4883 93.9437 83.0078 93.9437 82.4688C93.9437 81.9453 93.8383 81.457 93.6273 81.0039C93.4164 80.5508 93.0844 80.1836 92.6312 79.9023C92.1859 79.6211 91.6039 79.4805 90.8852 79.4805H87.5453V94H84.3227V76.9375H90.8852C92.2133 76.9375 93.3461 77.1758 94.2836 77.6523C95.2289 78.1211 95.9477 78.7734 96.4398 79.6094C96.9398 80.4375 97.1898 81.3828 97.1898 82.4453C97.1898 83.5469 96.9398 84.4961 96.4398 85.293C95.9477 86.0898 95.2289 86.7031 94.2836 87.1328C93.3461 87.5625 92.2133 87.7773 90.8852 87.7773ZM113.43 91.4688V94H104.359V91.4688H113.43ZM105.344 76.9375V94H102.121V76.9375H105.344ZM112.246 83.9805V86.4531H104.359V83.9805H112.246ZM113.395 76.9375V79.4805H104.359V76.9375H113.395ZM124.853 79.5273L119.99 94H116.58L122.955 76.9375H125.134L124.853 79.5273ZM128.92 94L124.033 79.5273L123.74 76.9375H125.931L132.341 94H128.92ZM128.697 87.6602V90.2031H119.545V87.6602H128.697ZM139.722 76.9375V94H136.499V76.9375H139.722ZM149.964 76.9375L143.12 85.2578L139.206 89.4414L138.632 86.3125L141.351 82.7852L146.015 76.9375H149.964ZM146.378 94L141.07 86.0078L143.378 83.9219L150.21 94H146.378Z" fill="#1A3A6C"/>
<path d="M1 70H164.5" stroke="black"/>
<path d="M1 103H41.875M164.5 103H123.625" stroke="black"/>
<path d="M140.103 63.0041L154.577 69.8158H11.3623L33.1596 47.9333L37.4169 48.5294L44.9097 38.993L41.2485 49.2105L31.7973 63.2596L40.4821 57.64L50.6996 59.6835L49.9333 53.8084L64.5784 49.8917L58.1073 44.8681L85.5242 14.3008L81.4372 26.0509L87.9083 32.3517H81.0115L75.3919 41.7177L77.4354 55.341L88.5043 42.9949L98.0407 51.6798L99.6584 41.6326L109.535 48.7848L108.343 28.3498L123.329 45.7196L132.354 58.3211L126.224 56.7885L132.95 63.7705L140.103 63.0041Z" fill="url(#paint0_linear_30_153)" stroke="black" stroke-width="0.170291"/>
<path d="M32.4785 44.783L10 69.7307L11.3623 69.8158L33.1596 47.9333L37.4169 48.5294L44.9098 38.993L41.2485 49.2105L31.7973 63.2596L40.4822 57.64L50.6997 59.6835L49.9333 53.8084L64.5784 49.8917L58.1073 44.8681L85.5243 14.3008L81.4373 26.0509L87.9083 32.3517H81.0115L75.3919 41.7177L77.4354 55.341L88.5044 42.9949L98.0407 51.6798L99.6585 41.6326L109.535 48.7848L108.343 28.3498L123.329 45.7196L132.354 58.3211L126.224 56.7885L132.95 63.7705L140.103 63.0041L154.577 69.8158H156.536L132.354 42.3137L126.905 45.7196L109.791 24.6034L102.128 26.4766L85.95 8L55.8084 42.484L45.7612 35.0763L36.3952 45.5493L32.4785 44.783Z" fill="url(#paint1_linear_30_153)" stroke="black" stroke-width="0.170291"/>
<path d="M86.2408 8.83803L87.7976 1.72523C87.7805 1.65001 87.7559 1.62168 87.6902 1.59102C87.6033 1.59575 87.568 1.61312 87.5292 1.67154L85.9993 8.75751C86.0005 8.82298 86.0163 8.85319 86.0798 8.89171C86.1588 8.90601 86.194 8.8944 86.2408 8.83803Z" fill="black"/>
<path d="M83.7983 4.48982C85.2705 4.339 85.8871 4.45767 86.5093 5.134L87.2608 1.80575C86.0934 1.21117 85.3869 0.987635 83.9325 1.00052C83.8007 1.04122 83.7577 1.09187 83.7178 1.21525L83.7983 4.48982Z" fill="black"/>
<path d="M83.5836 4.67771L83.5031 1.80575C83.0905 1.81925 82.7555 1.7081 82 1.34945C82.1664 2.60478 82.1678 3.30317 82.0805 4.54351C82.5831 4.96203 82.8773 5.11852 83.4226 5.26821C83.6001 5.28672 83.6931 5.26741 83.8252 5.08032C83.7913 4.88171 83.7524 4.78394 83.5836 4.67771Z" fill="black"/>
<path d="M86.2408 8.83803L87.7976 1.72523C87.7805 1.65001 87.7559 1.62168 87.6902 1.59102C87.6033 1.59575 87.568 1.61312 87.5292 1.67154L85.9993 8.75751C86.0005 8.82298 86.0163 8.85319 86.0798 8.89171C86.1588 8.90601 86.194 8.8944 86.2408 8.83803Z" stroke="black" stroke-width="0.00914151"/>
<path d="M83.7983 4.48982C85.2705 4.339 85.8871 4.45767 86.5093 5.134L87.2608 1.80575C86.0934 1.21117 85.3869 0.987635 83.9325 1.00052C83.8007 1.04122 83.7577 1.09187 83.7178 1.21525L83.7983 4.48982Z" stroke="black" stroke-width="0.00914151"/>
<path d="M83.5836 4.67771L83.5031 1.80575C83.0905 1.81925 82.7555 1.7081 82 1.34945C82.1664 2.60478 82.1678 3.30317 82.0805 4.54351C82.5831 4.96203 82.8773 5.11852 83.4226 5.26821C83.6001 5.28672 83.6931 5.26741 83.8252 5.08032C83.7913 4.88171 83.7524 4.78394 83.5836 4.67771Z" stroke="black" stroke-width="0.00914151"/>
<path d="M90.5539 7.69783V13L89.7322 12.413V8.61739L88.5191 9.94783V11.5326L87.6191 10.9065V9.53696L89.1648 7.85435L88.7735 6.68044C88.1034 7.35517 87.8334 7.60575 87.6778 7.6587C87.055 7.40978 86.7159 7.21415 86.1126 6.85652C86.004 6.72972 85.9801 6.63701 86.0148 6.42609C86.1146 6.25185 86.1893 6.20565 86.3474 6.19131L87.58 6.77826L88.5191 5.87826L89.7909 5.36957C90.6453 5.3854 91.0262 5.59623 91.5518 6.28913C91.9345 6.86139 92.0857 7.20521 92.2561 7.85435C92.2177 8.06225 92.1778 8.16739 91.9822 8.22609C91.7865 8.28479 91.6537 8.18805 91.5322 7.93261C91.375 7.32885 91.1964 7.02159 90.7887 6.50435C90.5317 6.27328 90.3704 6.2063 90.0648 6.15218L90.5539 7.69783Z" fill="black" stroke="black" stroke-width="0.0391304"/>
<ellipse rx="0.704348" ry="0.684783" transform="matrix(-1 0 0 1 88.7539 4.68478)" fill="black"/>
<defs>
<linearGradient id="paint0_linear_30_153" x1="28.5" y1="18.5" x2="71.5" y2="128" gradientUnits="userSpaceOnUse">
<stop offset="0.453125" stop-color="#D9D9D9"/>
<stop offset="1"/>
</linearGradient>
<linearGradient id="paint1_linear_30_153" x1="83.2679" y1="8" x2="83.2679" y2="69.8158" gradientUnits="userSpaceOnUse">
<stop offset="0.359375" stop-color="#1A3A6C"/>
<stop offset="1"/>
</linearGradient>
</defs>
</svg>
