<svg width="234" height="60" viewBox="0 0 234 60" fill="none" xmlns="http://www.w3.org/2000/svg" xmlns:xlink="http://www.w3.org/1999/xlink">
<path d="M29 59C54.1541 48.9028 75.4463 25.2718 29 1H233V59H29Z" fill="url(#paint0_linear_30_178)" stroke="black" stroke-width="0.1"/>
<path d="M74.1406 43.2871H75.2656C75.207 43.8262 75.0527 44.3086 74.8027 44.7344C74.5527 45.1602 74.1992 45.498 73.7422 45.748C73.2852 45.9941 72.7148 46.1172 72.0312 46.1172C71.5312 46.1172 71.0762 46.0234 70.666 45.8359C70.2598 45.6484 69.9102 45.3828 69.6172 45.0391C69.3242 44.6914 69.0977 44.2754 68.9375 43.791C68.7812 43.3027 68.7031 42.7598 68.7031 42.1621V41.3125C68.7031 40.7148 68.7812 40.1738 68.9375 39.6895C69.0977 39.2012 69.3262 38.7832 69.623 38.4355C69.9238 38.0879 70.2852 37.8203 70.707 37.6328C71.1289 37.4453 71.6035 37.3516 72.1309 37.3516C72.7754 37.3516 73.3203 37.4727 73.7656 37.7148C74.2109 37.957 74.5566 38.293 74.8027 38.7227C75.0527 39.1484 75.207 39.6426 75.2656 40.2051H74.1406C74.0859 39.8066 73.9844 39.4648 73.8359 39.1797C73.6875 38.8906 73.4766 38.668 73.2031 38.5117C72.9297 38.3555 72.5723 38.2773 72.1309 38.2773C71.752 38.2773 71.418 38.3496 71.1289 38.4941C70.8438 38.6387 70.6035 38.8438 70.4082 39.1094C70.2168 39.375 70.0723 39.6934 69.9746 40.0645C69.877 40.4355 69.8281 40.8477 69.8281 41.3008V42.1621C69.8281 42.5801 69.8711 42.9727 69.957 43.3398C70.0469 43.707 70.1816 44.0293 70.3613 44.3066C70.541 44.584 70.7695 44.8027 71.0469 44.9629C71.3242 45.1191 71.6523 45.1973 72.0312 45.1973C72.5117 45.1973 72.8945 45.1211 73.1797 44.9688C73.4648 44.8164 73.6797 44.5977 73.8242 44.3125C73.9727 44.0273 74.0781 43.6855 74.1406 43.2871ZM81.1531 42.6543H78.8738V41.7344H81.1531C81.5945 41.7344 81.952 41.6641 82.2254 41.5234C82.4988 41.3828 82.698 41.1875 82.823 40.9375C82.952 40.6875 83.0164 40.4023 83.0164 40.082C83.0164 39.7891 82.952 39.5137 82.823 39.2559C82.698 38.998 82.4988 38.791 82.2254 38.6348C81.952 38.4746 81.5945 38.3945 81.1531 38.3945H79.1375V46H78.0066V37.4688H81.1531C81.7977 37.4688 82.3426 37.5801 82.7879 37.8027C83.2332 38.0254 83.5711 38.334 83.8016 38.7285C84.032 39.1191 84.1473 39.5664 84.1473 40.0703C84.1473 40.6172 84.032 41.084 83.8016 41.4707C83.5711 41.8574 83.2332 42.1523 82.7879 42.3555C82.3426 42.5547 81.7977 42.6543 81.1531 42.6543ZM89.1266 38.2246L86.3023 46H85.148L88.4 37.4688H89.1441L89.1266 38.2246ZM91.4937 46L88.6637 38.2246L88.6461 37.4688H89.3902L92.6539 46H91.4937ZM91.3473 42.8418V43.7676H86.5543V42.8418H91.3473ZM100.585 41.2656L101.862 40.3574C102.109 40.1895 102.298 40.0215 102.431 39.8535C102.568 39.6816 102.636 39.4473 102.636 39.1504C102.636 38.9199 102.546 38.7109 102.366 38.5234C102.187 38.332 101.933 38.2363 101.605 38.2363C101.378 38.2363 101.187 38.2891 101.03 38.3945C100.874 38.5 100.757 38.6406 100.679 38.8164C100.601 38.9883 100.562 39.1777 100.562 39.3848C100.562 39.5605 100.605 39.7422 100.691 39.9297C100.777 40.1172 100.896 40.3125 101.048 40.5156C101.2 40.7188 101.374 40.9336 101.57 41.1602L105.607 46H104.306L100.995 42.0391C100.702 41.6953 100.441 41.3809 100.21 41.0957C99.9797 40.8066 99.798 40.5273 99.6652 40.2578C99.5363 39.9883 99.4719 39.709 99.4719 39.4199C99.4719 38.9746 99.5598 38.5996 99.7355 38.2949C99.9152 37.9863 100.165 37.752 100.486 37.5918C100.806 37.4316 101.181 37.3516 101.611 37.3516C102.029 37.3516 102.388 37.4355 102.689 37.6035C102.993 37.7676 103.228 37.9863 103.392 38.2598C103.556 38.5293 103.638 38.8262 103.638 39.1504C103.638 39.4238 103.589 39.6699 103.491 39.8887C103.394 40.1035 103.257 40.3008 103.081 40.4805C102.909 40.6602 102.708 40.8359 102.478 41.0078L100.784 42.2676C100.503 42.4746 100.298 42.6719 100.169 42.8594C100.04 43.0469 99.9562 43.2129 99.9172 43.3574C99.882 43.502 99.8645 43.6172 99.8645 43.7031C99.8645 43.9805 99.925 44.2344 100.046 44.4648C100.167 44.6953 100.351 44.8809 100.597 45.0215C100.847 45.1582 101.159 45.2266 101.534 45.2266C101.862 45.2266 102.181 45.1523 102.489 45.0039C102.802 44.8516 103.081 44.6367 103.327 44.3594C103.573 44.0781 103.769 43.7441 103.913 43.3574C104.062 42.9668 104.136 42.5352 104.136 42.0625H105.109C105.109 42.4492 105.071 42.8145 104.997 43.1582C104.923 43.502 104.808 43.8223 104.652 44.1191C104.499 44.4121 104.304 44.6797 104.066 44.9219C104.03 44.957 104.003 44.998 103.984 45.0449C103.964 45.0918 103.937 45.1328 103.902 45.168C103.609 45.4844 103.247 45.7227 102.818 45.8828C102.392 46.0391 101.964 46.1172 101.534 46.1172C100.968 46.1172 100.478 46.0137 100.064 45.8066C99.6535 45.5996 99.3371 45.3145 99.1145 44.9512C98.8918 44.5879 98.7805 44.1719 98.7805 43.7031C98.7805 43.3438 98.8566 43.0273 99.009 42.7539C99.1652 42.4805 99.3781 42.2246 99.6477 41.9863C99.9211 41.748 100.234 41.5078 100.585 41.2656ZM113.145 37.4688V46H112.014V37.4688H113.145ZM116.72 41.3066V42.2324H112.899V41.3066H116.72ZM117.3 37.4688V38.3945H112.899V37.4688H117.3ZM119.267 42.9004V42.7656C119.267 42.3086 119.334 41.8848 119.466 41.4941C119.599 41.0996 119.791 40.7578 120.041 40.4688C120.291 40.1758 120.593 39.9492 120.949 39.7891C121.304 39.625 121.703 39.543 122.144 39.543C122.589 39.543 122.99 39.625 123.345 39.7891C123.705 39.9492 124.009 40.1758 124.259 40.4688C124.513 40.7578 124.707 41.0996 124.839 41.4941C124.972 41.8848 125.039 42.3086 125.039 42.7656V42.9004C125.039 43.3574 124.972 43.7812 124.839 44.1719C124.707 44.5625 124.513 44.9043 124.259 45.1973C124.009 45.4863 123.707 45.7129 123.351 45.877C123 46.0371 122.601 46.1172 122.156 46.1172C121.711 46.1172 121.31 46.0371 120.955 45.877C120.599 45.7129 120.295 45.4863 120.041 45.1973C119.791 44.9043 119.599 44.5625 119.466 44.1719C119.334 43.7812 119.267 43.3574 119.267 42.9004ZM120.351 42.7656V42.9004C120.351 43.2168 120.388 43.5156 120.463 43.7969C120.537 44.0742 120.648 44.3203 120.796 44.5352C120.949 44.75 121.138 44.9199 121.365 45.0449C121.591 45.166 121.855 45.2266 122.156 45.2266C122.453 45.2266 122.713 45.166 122.935 45.0449C123.162 44.9199 123.349 44.75 123.498 44.5352C123.646 44.3203 123.757 44.0742 123.832 43.7969C123.91 43.5156 123.949 43.2168 123.949 42.9004V42.7656C123.949 42.4531 123.91 42.1582 123.832 41.8809C123.757 41.5996 123.644 41.3516 123.492 41.1367C123.343 40.918 123.156 40.7461 122.929 40.6211C122.707 40.4961 122.445 40.4336 122.144 40.4336C121.847 40.4336 121.586 40.4961 121.359 40.6211C121.136 40.7461 120.949 40.918 120.796 41.1367C120.648 41.3516 120.537 41.5996 120.463 41.8809C120.388 42.1582 120.351 42.4531 120.351 42.7656ZM131.477 44.5352V39.6602H132.567V46H131.53L131.477 44.5352ZM131.682 43.1992L132.133 43.1875C132.133 43.6094 132.088 44 131.998 44.3594C131.912 44.7148 131.772 45.0234 131.577 45.2852C131.381 45.5469 131.125 45.752 130.809 45.9004C130.493 46.0449 130.108 46.1172 129.655 46.1172C129.346 46.1172 129.063 46.0723 128.805 45.9824C128.551 45.8926 128.332 45.7539 128.149 45.5664C127.965 45.3789 127.823 45.1348 127.721 44.834C127.623 44.5332 127.575 44.1719 127.575 43.75V39.6602H128.659V43.7617C128.659 44.0469 128.69 44.2832 128.752 44.4707C128.819 44.6543 128.907 44.8008 129.016 44.9102C129.129 45.0156 129.254 45.0898 129.391 45.1328C129.532 45.1758 129.676 45.1973 129.825 45.1973C130.286 45.1973 130.651 45.1094 130.92 44.9336C131.19 44.7539 131.383 44.5137 131.5 44.2129C131.621 43.9082 131.682 43.5703 131.682 43.1992ZM136.503 41.0137V46H135.419V39.6602H136.445L136.503 41.0137ZM136.245 42.5898L135.794 42.5723C135.798 42.1387 135.863 41.7383 135.988 41.3711C136.113 41 136.288 40.6777 136.515 40.4043C136.741 40.1309 137.011 39.9199 137.323 39.7715C137.64 39.6191 137.989 39.543 138.372 39.543C138.685 39.543 138.966 39.5859 139.216 39.6719C139.466 39.7539 139.679 39.8867 139.855 40.0703C140.034 40.2539 140.171 40.4922 140.265 40.7852C140.359 41.0742 140.405 41.4277 140.405 41.8457V46H139.316V41.834C139.316 41.502 139.267 41.2363 139.169 41.0371C139.071 40.834 138.929 40.6875 138.741 40.5977C138.554 40.5039 138.323 40.457 138.05 40.457C137.78 40.457 137.534 40.5137 137.312 40.627C137.093 40.7402 136.904 40.8965 136.743 41.0957C136.587 41.2949 136.464 41.5234 136.374 41.7812C136.288 42.0352 136.245 42.3047 136.245 42.5898ZM147.248 44.7695V37H148.338V46H147.342L147.248 44.7695ZM142.982 42.9004V42.7773C142.982 42.293 143.041 41.8535 143.158 41.459C143.279 41.0605 143.449 40.7188 143.668 40.4336C143.891 40.1484 144.154 39.9297 144.459 39.7773C144.768 39.6211 145.111 39.543 145.49 39.543C145.889 39.543 146.236 39.6133 146.533 39.7539C146.834 39.8906 147.088 40.0918 147.295 40.3574C147.506 40.6191 147.672 40.9355 147.793 41.3066C147.914 41.6777 147.998 42.0977 148.045 42.5664V43.1055C148.002 43.5703 147.918 43.9883 147.793 44.3594C147.672 44.7305 147.506 45.0469 147.295 45.3086C147.088 45.5703 146.834 45.7715 146.533 45.9121C146.232 46.0488 145.881 46.1172 145.479 46.1172C145.107 46.1172 144.768 46.0371 144.459 45.877C144.154 45.7168 143.891 45.4922 143.668 45.2031C143.449 44.9141 143.279 44.5742 143.158 44.1836C143.041 43.7891 142.982 43.3613 142.982 42.9004ZM144.072 42.7773V42.9004C144.072 43.2168 144.104 43.5137 144.166 43.791C144.232 44.0684 144.334 44.3125 144.471 44.5234C144.607 44.7344 144.781 44.9004 144.992 45.0215C145.203 45.1387 145.455 45.1973 145.748 45.1973C146.107 45.1973 146.402 45.1211 146.633 44.9688C146.867 44.8164 147.055 44.6152 147.195 44.3652C147.336 44.1152 147.445 43.8438 147.523 43.5508V42.1387C147.477 41.9238 147.408 41.7168 147.318 41.5176C147.232 41.3145 147.119 41.1348 146.979 40.9785C146.842 40.8184 146.672 40.6914 146.469 40.5977C146.27 40.5039 146.033 40.457 145.76 40.457C145.463 40.457 145.207 40.5195 144.992 40.6445C144.781 40.7656 144.607 40.9336 144.471 41.1484C144.334 41.3594 144.232 41.6055 144.166 41.8867C144.104 42.1641 144.072 42.4609 144.072 42.7773ZM153.856 46.1172C153.415 46.1172 153.014 46.043 152.655 45.8945C152.3 45.7422 151.993 45.5293 151.735 45.2559C151.481 44.9824 151.286 44.6582 151.149 44.2832C151.012 43.9082 150.944 43.498 150.944 43.0527V42.8066C150.944 42.291 151.02 41.832 151.173 41.4297C151.325 41.0234 151.532 40.6797 151.794 40.3984C152.055 40.1172 152.352 39.9043 152.684 39.7598C153.016 39.6152 153.36 39.543 153.716 39.543C154.169 39.543 154.559 39.6211 154.887 39.7773C155.22 39.9336 155.491 40.1523 155.702 40.4336C155.913 40.7109 156.069 41.0391 156.171 41.418C156.272 41.793 156.323 42.2031 156.323 42.6484V43.1348H151.589V42.25H155.239V42.168C155.223 41.8867 155.165 41.6133 155.063 41.3477C154.966 41.082 154.809 40.8633 154.595 40.6914C154.38 40.5195 154.087 40.4336 153.716 40.4336C153.47 40.4336 153.243 40.4863 153.036 40.5918C152.829 40.6934 152.651 40.8457 152.503 41.0488C152.354 41.252 152.239 41.5 152.157 41.793C152.075 42.0859 152.034 42.4238 152.034 42.8066V43.0527C152.034 43.3535 152.075 43.6367 152.157 43.9023C152.243 44.1641 152.366 44.3945 152.526 44.5938C152.69 44.793 152.887 44.9492 153.118 45.0625C153.352 45.1758 153.618 45.2324 153.915 45.2324C154.298 45.2324 154.622 45.1543 154.887 44.998C155.153 44.8418 155.386 44.6328 155.585 44.3711L156.241 44.8926C156.104 45.0996 155.93 45.2969 155.72 45.4844C155.509 45.6719 155.249 45.8242 154.94 45.9414C154.636 46.0586 154.274 46.1172 153.856 46.1172ZM159.873 40.6562V46H158.789V39.6602H159.843L159.873 40.6562ZM161.853 39.625L161.847 40.6328C161.757 40.6133 161.671 40.6016 161.589 40.5977C161.511 40.5898 161.421 40.5859 161.32 40.5859C161.07 40.5859 160.849 40.625 160.658 40.7031C160.466 40.7812 160.304 40.8906 160.171 41.0312C160.039 41.1719 159.933 41.3398 159.855 41.5352C159.781 41.7266 159.732 41.9375 159.709 42.168L159.404 42.3438C159.404 41.9609 159.441 41.6016 159.515 41.2656C159.593 40.9297 159.713 40.6328 159.873 40.375C160.033 40.1133 160.236 39.9102 160.482 39.7656C160.732 39.6172 161.029 39.543 161.373 39.543C161.451 39.543 161.541 39.5527 161.642 39.5723C161.744 39.5879 161.814 39.6055 161.853 39.625Z" fill="white"/>
<path d="M74.5991 23.2314C74.5991 23.0264 74.5674 22.8433 74.5039 22.6821C74.4453 22.5161 74.3354 22.3672 74.1743 22.2354C74.0181 22.0986 73.7959 21.9668 73.5078 21.8398C73.2246 21.708 72.8584 21.5713 72.4092 21.4297C71.9111 21.2734 71.4473 21.0977 71.0176 20.9023C70.5879 20.707 70.2095 20.48 69.8823 20.2212C69.5601 19.9624 69.3086 19.6646 69.1279 19.3276C68.9473 18.9858 68.8569 18.5903 68.8569 18.1411C68.8569 17.7017 68.9497 17.3013 69.1353 16.9399C69.3257 16.5786 69.5942 16.2686 69.9409 16.0098C70.2876 15.7461 70.6953 15.5435 71.1641 15.4019C71.6377 15.2603 72.1602 15.1895 72.7314 15.1895C73.5225 15.1895 74.2061 15.3335 74.7822 15.6216C75.3633 15.9097 75.8125 16.3003 76.1299 16.7935C76.4473 17.2866 76.606 17.8408 76.606 18.4561H74.5991C74.5991 18.124 74.5283 17.8311 74.3867 17.5771C74.25 17.3232 74.04 17.123 73.7568 16.9766C73.4785 16.8301 73.127 16.7568 72.7021 16.7568C72.292 16.7568 71.9502 16.8179 71.6768 16.9399C71.4082 17.062 71.2056 17.228 71.0688 17.438C70.937 17.6479 70.8711 17.8823 70.8711 18.1411C70.8711 18.3364 70.9175 18.5122 71.0103 18.6685C71.103 18.8198 71.2422 18.9639 71.4277 19.1006C71.6133 19.2324 71.8428 19.3569 72.1162 19.4741C72.3945 19.5864 72.7168 19.6987 73.083 19.811C73.6689 19.9868 74.1816 20.1821 74.6211 20.397C75.0654 20.6118 75.4341 20.856 75.7271 21.1294C76.0249 21.4028 76.2471 21.7104 76.3936 22.0522C76.5449 22.394 76.6206 22.7822 76.6206 23.2168C76.6206 23.6758 76.5303 24.0859 76.3496 24.4473C76.1689 24.8086 75.9102 25.1162 75.5732 25.3701C75.2363 25.624 74.8311 25.8169 74.3574 25.9487C73.8887 26.0806 73.3638 26.1465 72.7827 26.1465C72.2651 26.1465 71.7524 26.0781 71.2446 25.9414C70.7417 25.7998 70.2852 25.5898 69.875 25.3115C69.4648 25.0283 69.1377 24.6719 68.8936 24.2422C68.6494 23.8076 68.5273 23.2998 68.5273 22.7188H70.5488C70.5488 23.0557 70.6025 23.3438 70.71 23.583C70.8223 23.8174 70.9785 24.0103 71.1787 24.1616C71.3838 24.3081 71.623 24.4155 71.8965 24.4839C72.1699 24.5522 72.4653 24.5864 72.7827 24.5864C73.1929 24.5864 73.5298 24.5303 73.7935 24.418C74.062 24.3008 74.2622 24.1396 74.394 23.9346C74.5308 23.7295 74.5991 23.4951 74.5991 23.2314ZM83.0864 26.1465C82.4858 26.1465 81.9463 26.0488 81.4678 25.8535C80.9893 25.6582 80.5815 25.3872 80.2446 25.0405C79.9126 24.689 79.6562 24.2812 79.4756 23.8174C79.2998 23.3486 79.2119 22.8457 79.2119 22.3086V22.0156C79.2119 21.4053 79.2998 20.8511 79.4756 20.353C79.6514 19.8501 79.9004 19.418 80.2227 19.0566C80.5449 18.6953 80.9307 18.417 81.3799 18.2217C81.8291 18.0264 82.3247 17.9287 82.8667 17.9287C83.4282 17.9287 83.9238 18.0239 84.3535 18.2144C84.7832 18.3999 85.1421 18.6636 85.4302 19.0054C85.7183 19.3472 85.9355 19.7573 86.082 20.2358C86.2285 20.7095 86.3018 21.2344 86.3018 21.8105V22.6235H80.0908V21.2905H84.3975V21.144C84.3877 20.8364 84.3291 20.5557 84.2217 20.3018C84.1143 20.043 83.9482 19.8379 83.7236 19.6865C83.499 19.5303 83.2085 19.4521 82.8521 19.4521C82.564 19.4521 82.3125 19.5156 82.0977 19.6426C81.8877 19.7646 81.7119 19.9404 81.5703 20.1699C81.4336 20.3945 81.3311 20.6631 81.2627 20.9756C81.1943 21.2881 81.1602 21.6348 81.1602 22.0156V22.3086C81.1602 22.6406 81.2041 22.9482 81.292 23.2314C81.3848 23.5146 81.519 23.7612 81.6948 23.9712C81.8755 24.1763 82.0903 24.3374 82.3394 24.4546C82.5933 24.5669 82.8813 24.623 83.2036 24.623C83.6089 24.623 83.9751 24.5449 84.3022 24.3887C84.6343 24.2275 84.9224 23.9907 85.1665 23.6782L86.1406 24.689C85.9746 24.9331 85.75 25.1675 85.4668 25.3921C85.1885 25.6167 84.8516 25.7998 84.4561 25.9414C84.0605 26.0781 83.604 26.1465 83.0864 26.1465ZM93.4634 24.3154V20.6606C93.4634 20.3921 93.417 20.1602 93.3242 19.9648C93.2314 19.7695 93.0898 19.6182 92.8994 19.5107C92.709 19.4033 92.4673 19.3496 92.1743 19.3496C91.9155 19.3496 91.6885 19.3936 91.4932 19.4814C91.3027 19.5693 91.1562 19.6938 91.0537 19.855C90.9512 20.0112 90.8999 20.1919 90.8999 20.397H88.959C88.959 20.0698 89.0371 19.7598 89.1934 19.4668C89.3496 19.1689 89.5718 18.9053 89.8599 18.6758C90.1528 18.4414 90.502 18.2583 90.9072 18.1265C91.3174 17.9946 91.7764 17.9287 92.2842 17.9287C92.8848 17.9287 93.4194 18.0312 93.8882 18.2363C94.3618 18.4365 94.7329 18.7393 95.0015 19.1445C95.2749 19.5498 95.4116 20.0601 95.4116 20.6753V24.1323C95.4116 24.5278 95.436 24.8672 95.4849 25.1504C95.5386 25.4287 95.6167 25.6704 95.7192 25.8755V26H93.749C93.6562 25.7998 93.5854 25.5459 93.5366 25.2383C93.4878 24.9258 93.4634 24.6182 93.4634 24.3154ZM93.7344 21.1733L93.749 22.3232H92.5259C92.2231 22.3232 91.957 22.355 91.7275 22.4185C91.498 22.4771 91.3101 22.5649 91.1636 22.6821C91.0171 22.7944 90.9072 22.9312 90.834 23.0923C90.7607 23.2485 90.7241 23.4268 90.7241 23.627C90.7241 23.8223 90.7681 23.998 90.856 24.1543C90.9487 24.3105 91.0806 24.4351 91.2515 24.5278C91.4272 24.6157 91.6323 24.6597 91.8667 24.6597C92.2085 24.6597 92.5063 24.5913 92.7603 24.4546C93.0142 24.313 93.2119 24.1421 93.3535 23.9419C93.4951 23.7417 93.5708 23.5513 93.5806 23.3706L94.1372 24.2056C94.0688 24.4058 93.9663 24.6182 93.8296 24.8428C93.6929 25.0674 93.5171 25.2773 93.3022 25.4727C93.0874 25.668 92.8286 25.8291 92.5259 25.9561C92.2231 26.083 91.8716 26.1465 91.4712 26.1465C90.9585 26.1465 90.4995 26.0439 90.0942 25.8389C89.689 25.6338 89.3691 25.353 89.1348 24.9966C88.9004 24.6401 88.7832 24.2349 88.7832 23.7808C88.7832 23.3608 88.8613 22.9897 89.0176 22.6675C89.1738 22.3452 89.4058 22.0742 89.7134 21.8545C90.021 21.6299 90.4019 21.4614 90.856 21.3491C91.3149 21.2319 91.8398 21.1733 92.4307 21.1733H93.7344ZM100.552 19.7671V26H98.6182V18.0752H100.435L100.552 19.7671ZM100.244 21.752H99.6729C99.6777 21.1758 99.7559 20.6533 99.9072 20.1846C100.059 19.7158 100.271 19.313 100.544 18.9761C100.823 18.6392 101.152 18.3804 101.533 18.1997C101.914 18.019 102.339 17.9287 102.808 17.9287C103.188 17.9287 103.533 17.9824 103.84 18.0898C104.148 18.1973 104.412 18.3682 104.631 18.6025C104.856 18.8369 105.027 19.1445 105.144 19.5254C105.266 19.9014 105.327 20.3652 105.327 20.917V26H103.379V20.9023C103.379 20.541 103.325 20.2554 103.218 20.0454C103.115 19.8354 102.964 19.6865 102.764 19.5986C102.568 19.5107 102.327 19.4668 102.039 19.4668C101.741 19.4668 101.479 19.5278 101.255 19.6499C101.035 19.7671 100.85 19.9307 100.698 20.1406C100.552 20.3506 100.439 20.5923 100.361 20.8657C100.283 21.1392 100.244 21.4346 100.244 21.752ZM118.017 22.1108H115.271V20.5288H118.017C118.466 20.5288 118.83 20.4556 119.108 20.3091C119.392 20.1577 119.599 19.9526 119.731 19.6938C119.863 19.4302 119.929 19.1299 119.929 18.793C119.929 18.4658 119.863 18.1606 119.731 17.8774C119.599 17.5942 119.392 17.3647 119.108 17.189C118.83 17.0132 118.466 16.9253 118.017 16.9253H115.93V26H113.916V15.3359H118.017C118.847 15.3359 119.555 15.4849 120.141 15.7827C120.732 16.0757 121.181 16.4834 121.489 17.0059C121.801 17.5234 121.958 18.1143 121.958 18.7783C121.958 19.4668 121.801 20.0601 121.489 20.5581C121.181 21.0562 120.732 21.4395 120.141 21.708C119.555 21.9766 118.847 22.1108 118.017 22.1108ZM127.427 26H125.479V17.3428C125.479 16.7471 125.594 16.2466 125.823 15.8413C126.053 15.4312 126.38 15.1211 126.805 14.9111C127.229 14.7012 127.73 14.5962 128.306 14.5962C128.497 14.5962 128.677 14.6084 128.848 14.6328C129.024 14.6572 129.197 14.6914 129.368 14.7354L129.332 16.2075C129.239 16.1831 129.136 16.166 129.024 16.1562C128.917 16.1465 128.797 16.1416 128.665 16.1416C128.401 16.1416 128.177 16.188 127.991 16.2808C127.806 16.3735 127.664 16.5103 127.566 16.6909C127.474 16.8667 127.427 17.084 127.427 17.3428V26ZM129.031 18.0752V19.4668H124.285V18.0752H129.031ZM136.09 24.3154V20.6606C136.09 20.3921 136.044 20.1602 135.951 19.9648C135.858 19.7695 135.717 19.6182 135.526 19.5107C135.336 19.4033 135.094 19.3496 134.801 19.3496C134.542 19.3496 134.315 19.3936 134.12 19.4814C133.93 19.5693 133.783 19.6938 133.681 19.855C133.578 20.0112 133.527 20.1919 133.527 20.397H131.586C131.586 20.0698 131.664 19.7598 131.82 19.4668C131.977 19.1689 132.199 18.9053 132.487 18.6758C132.78 18.4414 133.129 18.2583 133.534 18.1265C133.944 17.9946 134.403 17.9287 134.911 17.9287C135.512 17.9287 136.046 18.0312 136.515 18.2363C136.989 18.4365 137.36 18.7393 137.628 19.1445C137.902 19.5498 138.039 20.0601 138.039 20.6753V24.1323C138.039 24.5278 138.063 24.8672 138.112 25.1504C138.166 25.4287 138.244 25.6704 138.346 25.8755V26H136.376C136.283 25.7998 136.212 25.5459 136.164 25.2383C136.115 24.9258 136.09 24.6182 136.09 24.3154ZM136.361 21.1733L136.376 22.3232H135.153C134.85 22.3232 134.584 22.355 134.354 22.4185C134.125 22.4771 133.937 22.5649 133.791 22.6821C133.644 22.7944 133.534 22.9312 133.461 23.0923C133.388 23.2485 133.351 23.4268 133.351 23.627C133.351 23.8223 133.395 23.998 133.483 24.1543C133.576 24.3105 133.708 24.4351 133.878 24.5278C134.054 24.6157 134.259 24.6597 134.494 24.6597C134.835 24.6597 135.133 24.5913 135.387 24.4546C135.641 24.313 135.839 24.1421 135.98 23.9419C136.122 23.7417 136.198 23.5513 136.208 23.3706L136.764 24.2056C136.696 24.4058 136.593 24.6182 136.457 24.8428C136.32 25.0674 136.144 25.2773 135.929 25.4727C135.714 25.668 135.456 25.8291 135.153 25.9561C134.85 26.083 134.499 26.1465 134.098 26.1465C133.585 26.1465 133.126 26.0439 132.721 25.8389C132.316 25.6338 131.996 25.353 131.762 24.9966C131.527 24.6401 131.41 24.2349 131.41 23.7808C131.41 23.3608 131.488 22.9897 131.645 22.6675C131.801 22.3452 132.033 22.0742 132.34 21.8545C132.648 21.6299 133.029 21.4614 133.483 21.3491C133.942 21.2319 134.467 21.1733 135.058 21.1733H136.361ZM143.333 14.75V26H141.392V14.75H143.333ZM152.889 24.4766V26H146.927V24.4766H152.889ZM152.75 19.2324L147.652 26H146.378V24.8062L151.446 18.0752H152.75V19.2324ZM152.04 18.0752V19.606H146.48V18.0752H152.04ZM160.688 18.0752H162.446V25.7583C162.446 26.4761 162.29 27.084 161.977 27.582C161.669 28.085 161.237 28.4658 160.681 28.7246C160.124 28.9883 159.477 29.1201 158.74 29.1201C158.422 29.1201 158.078 29.0762 157.707 28.9883C157.341 28.9004 156.987 28.7612 156.645 28.5708C156.308 28.3853 156.027 28.1436 155.803 27.8457L156.674 26.7031C156.938 27.0107 157.236 27.2427 157.568 27.3989C157.9 27.5601 158.259 27.6406 158.645 27.6406C159.035 27.6406 159.367 27.5674 159.641 27.4209C159.919 27.2793 160.131 27.0693 160.278 26.791C160.429 26.5176 160.505 26.1807 160.505 25.7803V19.8843L160.688 18.0752ZM155.334 22.1328V21.979C155.334 21.3735 155.407 20.8242 155.554 20.3311C155.7 19.833 155.91 19.4058 156.184 19.0493C156.462 18.6929 156.796 18.417 157.187 18.2217C157.583 18.0264 158.027 17.9287 158.52 17.9287C159.042 17.9287 159.482 18.0239 159.838 18.2144C160.2 18.4048 160.498 18.6758 160.732 19.0273C160.971 19.3789 161.157 19.7964 161.289 20.2798C161.425 20.7583 161.53 21.2856 161.604 21.8618V22.2793C161.535 22.8408 161.425 23.356 161.274 23.8247C161.127 24.2935 160.932 24.7036 160.688 25.0552C160.444 25.4019 160.141 25.6704 159.78 25.8608C159.418 26.0513 158.994 26.1465 158.505 26.1465C158.017 26.1465 157.578 26.0464 157.187 25.8462C156.796 25.646 156.462 25.3652 156.184 25.0039C155.91 24.6426 155.7 24.2178 155.554 23.7295C155.407 23.2412 155.334 22.709 155.334 22.1328ZM157.268 21.979V22.1328C157.268 22.4746 157.302 22.7944 157.37 23.0923C157.438 23.3901 157.543 23.6538 157.685 23.8833C157.827 24.1079 158.005 24.2837 158.22 24.4106C158.435 24.5376 158.691 24.6011 158.989 24.6011C159.389 24.6011 159.716 24.5181 159.97 24.3521C160.229 24.1812 160.424 23.9492 160.556 23.6562C160.693 23.3584 160.781 23.0239 160.82 22.6528V21.5029C160.795 21.21 160.742 20.939 160.659 20.6899C160.581 20.4409 160.471 20.2261 160.329 20.0454C160.188 19.8647 160.007 19.7231 159.787 19.6206C159.567 19.5181 159.306 19.4668 159.003 19.4668C158.71 19.4668 158.454 19.5327 158.234 19.6646C158.015 19.7915 157.834 19.9697 157.692 20.1992C157.551 20.4287 157.443 20.6948 157.37 20.9976C157.302 21.3003 157.268 21.6274 157.268 21.979ZM167.623 19.6938V26H165.689V18.0752H167.52L167.623 19.6938ZM170.032 18.0239L170.003 19.8257C169.896 19.8062 169.773 19.7915 169.637 19.7817C169.505 19.772 169.38 19.7671 169.263 19.7671C168.965 19.7671 168.704 19.8086 168.479 19.8916C168.255 19.9697 168.067 20.0845 167.916 20.2358C167.769 20.3872 167.657 20.5728 167.579 20.7925C167.5 21.0073 167.457 21.2515 167.447 21.5249L167.029 21.4736C167.029 20.9707 167.081 20.5044 167.183 20.0747C167.286 19.645 167.435 19.269 167.63 18.9468C167.825 18.6245 168.069 18.3755 168.362 18.1997C168.66 18.019 169.002 17.9287 169.388 17.9287C169.495 17.9287 169.61 17.9385 169.732 17.958C169.859 17.9727 169.959 17.9946 170.032 18.0239ZM176.71 24.3154V20.6606C176.71 20.3921 176.664 20.1602 176.571 19.9648C176.479 19.7695 176.337 19.6182 176.146 19.5107C175.956 19.4033 175.714 19.3496 175.421 19.3496C175.163 19.3496 174.936 19.3936 174.74 19.4814C174.55 19.5693 174.403 19.6938 174.301 19.855C174.198 20.0112 174.147 20.1919 174.147 20.397H172.206C172.206 20.0698 172.284 19.7598 172.44 19.4668C172.597 19.1689 172.819 18.9053 173.107 18.6758C173.4 18.4414 173.749 18.2583 174.154 18.1265C174.564 17.9946 175.023 17.9287 175.531 17.9287C176.132 17.9287 176.667 18.0312 177.135 18.2363C177.609 18.4365 177.98 18.7393 178.249 19.1445C178.522 19.5498 178.659 20.0601 178.659 20.6753V24.1323C178.659 24.5278 178.683 24.8672 178.732 25.1504C178.786 25.4287 178.864 25.6704 178.966 25.8755V26H176.996C176.903 25.7998 176.833 25.5459 176.784 25.2383C176.735 24.9258 176.71 24.6182 176.71 24.3154ZM176.981 21.1733L176.996 22.3232H175.773C175.47 22.3232 175.204 22.355 174.975 22.4185C174.745 22.4771 174.557 22.5649 174.411 22.6821C174.264 22.7944 174.154 22.9312 174.081 23.0923C174.008 23.2485 173.971 23.4268 173.971 23.627C173.971 23.8223 174.015 23.998 174.103 24.1543C174.196 24.3105 174.328 24.4351 174.499 24.5278C174.674 24.6157 174.879 24.6597 175.114 24.6597C175.456 24.6597 175.753 24.5913 176.007 24.4546C176.261 24.313 176.459 24.1421 176.601 23.9419C176.742 23.7417 176.818 23.5513 176.828 23.3706L177.384 24.2056C177.316 24.4058 177.213 24.6182 177.077 24.8428C176.94 25.0674 176.764 25.2773 176.549 25.4727C176.334 25.668 176.076 25.8291 175.773 25.9561C175.47 26.083 175.119 26.1465 174.718 26.1465C174.206 26.1465 173.747 26.0439 173.341 25.8389C172.936 25.6338 172.616 25.353 172.382 24.9966C172.147 24.6401 172.03 24.2349 172.03 23.7808C172.03 23.3608 172.108 22.9897 172.265 22.6675C172.421 22.3452 172.653 22.0742 172.96 21.8545C173.268 21.6299 173.649 21.4614 174.103 21.3491C174.562 21.2319 175.087 21.1733 175.678 21.1733H176.981ZM184.436 26H182.488V17.3428C182.488 16.7471 182.603 16.2466 182.832 15.8413C183.062 15.4312 183.389 15.1211 183.813 14.9111C184.238 14.7012 184.739 14.5962 185.315 14.5962C185.505 14.5962 185.686 14.6084 185.857 14.6328C186.033 14.6572 186.206 14.6914 186.377 14.7354L186.34 16.2075C186.248 16.1831 186.145 16.166 186.033 16.1562C185.925 16.1465 185.806 16.1416 185.674 16.1416C185.41 16.1416 185.186 16.188 185 16.2808C184.814 16.3735 184.673 16.5103 184.575 16.6909C184.482 16.8667 184.436 17.084 184.436 17.3428V26ZM186.04 18.0752V19.4668H181.294V18.0752H186.04Z" fill="white"/>
<circle cx="30" cy="30" r="29.25" fill="white" stroke="black" stroke-width="1.5"/>
<path d="M30 55C43.8071 55 55 43.8071 55 30C55 16.1929 43.8071 5 30 5C16.1929 5 5 16.1929 5 30C5 43.8071 16.1929 55 30 55Z" fill="url(#pattern0)"/>
<defs>
<pattern id="pattern0" patternContentUnits="objectBoundingBox" width="1" height="1">
<use xlink:href="#image0_30_178" transform="translate(0 -0.0555556) scale(0.00483092)"/>
</pattern>
<linearGradient id="paint0_linear_30_178" x1="11.3988" y1="26.037" x2="483.944" y2="96.1146" gradientUnits="userSpaceOnUse">
<stop/>
<stop offset="0.213542" stop-color="#1A3A6C"/>
<stop offset="0.979167"/>
</linearGradient>
<image id="image0_30_178" width="207" height="230" xlink:href="https://raw.githubusercontent.com/SeanOliver23/EmailSignature/main/Sean_Pfalzgraf_resume_1687.jpg"/>
</defs>
</svg>
