<svg width="15" height="15" viewBox="0 0 15 15" fill="none" xmlns="http://www.w3.org/2000/svg">
<path fill-rule="evenodd" clip-rule="evenodd" d="M5.90625 10.1719C6.375 10.4531 6.9375 10.5938 7.5 10.5938C9.23438 10.5938 10.5938 9.1875 10.5938 7.54688C10.5938 6.70313 10.3125 5.95312 9.70313 5.34375C9.09376 4.78125 8.34375 4.45312 7.5 4.45312C5.8125 4.45312 4.40625 5.85938 4.40625 7.54688C4.40625 8.10938 4.54688 8.67188 4.875 9.1875L4.96875 9.32812L4.64062 10.4531L5.8125 10.125L5.90625 10.1719ZM8.53126 7.96875C8.62501 7.96875 9.09375 8.20313 9.1875 8.25C9.20208 8.25731 9.21671 8.26345 9.23115 8.26955C9.30933 8.30255 9.38232 8.33339 9.42188 8.53125C9.46875 8.53125 9.46875 8.71875 9.375 8.95313C9.32813 9.14063 8.95313 9.375 8.76563 9.375C8.73385 9.375 8.70343 9.37767 8.67094 9.38058C8.51166 9.39464 8.3025 9.41316 7.64063 9.14062C6.81914 8.81203 6.24961 8.01558 6.08968 7.79194C6.06708 7.76034 6.05269 7.74019 6.04688 7.73438C6.03891 7.71844 6.02274 7.69294 6.00146 7.65933C5.89777 7.49559 5.67188 7.13892 5.67188 6.75C5.67188 6.28125 5.90625 6.04687 6 5.95312C6.09375 5.85937 6.1875 5.85938 6.23438 5.85938H6.42188C6.46875 5.85938 6.5625 5.85938 6.60938 6C6.70313 6.1875 6.89063 6.65625 6.89063 6.70313C6.89063 6.71873 6.89583 6.73439 6.90104 6.75C6.91149 6.78127 6.9219 6.81248 6.89063 6.84375C6.86719 6.86719 6.85547 6.89062 6.84375 6.91406C6.83204 6.9375 6.82032 6.96094 6.79688 6.98437L6.65625 7.125C6.60938 7.17187 6.5625 7.21875 6.60938 7.3125C6.65625 7.40625 6.84375 7.73438 7.125 7.96875C7.44146 8.24564 7.69116 8.35566 7.81772 8.41139C7.84116 8.4217 7.86038 8.43019 7.875 8.4375C7.96875 8.4375 8.01563 8.4375 8.06251 8.39062C8.08594 8.34375 8.14454 8.27344 8.20313 8.20312C8.26172 8.13281 8.32032 8.0625 8.34375 8.01563C8.39063 7.92188 8.43751 7.92187 8.53126 7.96875Z" fill="black"/>
<path fill-rule="evenodd" clip-rule="evenodd" d="M0 7.5C0 3.35786 3.35786 0 7.5 0C11.6422 0 15 3.35786 15 7.5C15 11.6422 11.6422 15 7.5 15C3.35786 15 0 11.6422 0 7.5ZM7.5 3.75C8.48437 3.75 9.42188 4.125 10.125 4.82813C10.8281 5.53125 11.25 6.46875 11.25 7.45312C11.25 9.51562 9.5625 11.2031 7.5 11.2031C6.89063 11.2031 6.28125 11.0156 5.71875 10.7344L3.75 11.25L4.26563 9.375C3.9375 8.8125 3.75 8.15625 3.75 7.5C3.75 5.4375 5.4375 3.75 7.5 3.75Z" fill="black"/>
</svg>
